<?xml version="1.0" encoding="UTF-8"?>
<!-- Generator: Adobe Illustrator 13.0.2, SVG Export Plug-In . SVG Version: 6.00 Build 14948)  -->
<!DOCTYPE svg PUBLIC "-//W3C//DTD SVG 1.1//EN" "http://www.w3.org/Graphics/SVG/1.1/DTD/svg11.dtd">
<svg version="1.1" id="Hierb" xmlns="http://www.w3.org/2000/svg" xmlns:xlink="http://www.w3.org/1999/xlink" x="0px" y="0px" width="501.5859375px" height="633.40625px" viewBox="0.0002441 -0.0002441 501.5859375 633.40625" enable-background="new 0.0002441 -0.0002441 501.5859375 633.40625" xml:space="preserve">
<metadata><?xpacket begin="﻿" id="W5M0MpCehiHzreSzNTczkc9d"?>
<x:xmpmeta xmlns:x="adobe:ns:meta/" x:xmptk="Adobe XMP Core 4.1-c036 46.277092, Fri Feb 23 2007 14:17:08        ">
 <rdf:RDF xmlns:rdf="http://www.w3.org/1999/02/22-rdf-syntax-ns#">
  <rdf:Description rdf:about="" xmlns:dc="http://purl.org/dc/elements/1.1/" xmlns:xap="http://ns.adobe.com/xap/1.0/" xmlns:xapMM="http://ns.adobe.com/xap/1.0/mm/" xmlns:stRef="http://ns.adobe.com/xap/1.0/sType/ResourceRef#" xmlns:xapRights="http://ns.adobe.com/xap/1.0/rights/" xmlns:illustrator="http://ns.adobe.com/illustrator/1.0/" xmlns:xapTPg="http://ns.adobe.com/xap/1.0/t/pg/" xmlns:xapG="http://ns.adobe.com/xap/1.0/g/" xmlns:stDim="http://ns.adobe.com/xap/1.0/sType/Dimensions#" xmlns:photoshop="http://ns.adobe.com/photoshop/1.0/" dc:format="image/svg+xml" xap:MetadataDate="2008-03-23T01:15:48+02:00" xap:ModifyDate="2008-03-23T00:53:06+02:00" xap:CreateDate="2008-03-23T00:53:05+02:00" xap:CreatorTool="Adobe Illustrator CS3" xap:Rating="5" xapMM:InstanceID="uuid:6F9AF04C61F8DC11BE6CD52BCD8F234E" xapMM:DocumentID="uuid:6E9AF04C61F8DC11BE6CD52BCD8F234E" xapRights:Marked="False" illustrator:StartupProfile="Print" xapTPg:HasVisibleOverprint="False" xapTPg:HasVisibleTransparency="False" xapTPg:NPages="1" photoshop:CaptionWriter="Я аддаю вынік некалькіх месяцаў сваёй працы ва ўсеагульнае карыстанне для дабра сваёй радзімы. Жыве Беларусь!">
   <dc:title>
    <rdf:Alt>
     <rdf:li xml:lang="x-default">Беларускі нацыянальны герб Пагоня – Belarusian National Coat of Arms Pahonia (Chase)</rdf:li>
    </rdf:Alt>
   </dc:title>
   <dc:creator>
    <rdf:Seq>
     <rdf:li>Sp.Shut</rdf:li>
    </rdf:Seq>
   </dc:creator>
   <dc:description>
    <rdf:Alt>
     <rdf:li xml:lang="x-default">I created this vector file by tracing standard image of the CoA.</rdf:li>
    </rdf:Alt>
   </dc:description>
   <xapMM:DerivedFrom stRef:instanceID="uuid:6D9AF04C61F8DC11BE6CD52BCD8F234E"/>
   <xapTPg:SwatchGroups>
    <rdf:Seq>
     <rdf:li xapG:groupName="Default Swatch Group" xapG:groupType="0"/>
    </rdf:Seq>
   </xapTPg:SwatchGroups>
   <xapTPg:PlateNames>
    <rdf:Seq>
     <rdf:li>Cyan</rdf:li>
     <rdf:li>Magenta</rdf:li>
     <rdf:li>Yellow</rdf:li>
     <rdf:li>Black</rdf:li>
    </rdf:Seq>
   </xapTPg:PlateNames>
   <xapTPg:MaxPageSize stDim:w="20.999999" stDim:h="29.700002" stDim:unit="Centimeters"/>
  </rdf:Description>
 </rdf:RDF>
</x:xmpmeta>
                                                                                                    
                                                                                                    
                                                                                                    
                                                                                                    
                                                                                                    
                                                                                                    
                                                                                                    
                                                                                                    
                                                                                                    
                                                                                                    
                                                                                                    
                                                                                                    
                                                                                                    
                                                                                                    
                                                                                                    
                                                                                                    
                                                                                                    
                                                                                                    
                                                                                                    
                                                                                                    
                                                                                                    
                                                                                                    
                                                                                                    
                                                                                                    
                                                                                                   
<?xpacket end="w"?>
	</metadata>
<path fill="#E22228" d="M250.7941895,625.189209c-4.78125-1.4609375-16.0048828-5.1191406-31.4472656-11.6044922  c-12.0849609-5.0732422-24.1298828-10.7861328-35.8017578-16.984375  c-14.6113281-7.7578125-28.6708984-16.2880859-41.7900391-25.3554688  c-37.6806641-26.0429688-66.4052734-52.6542969-85.375-79.0966797c-6.0830078-8.4814453-11.7099609-17.3222656-16.7216797-26.28125  c-5.265625-9.4101563-9.9931641-19.2050781-14.0556641-29.1152344c-4.2607422-10.4023438-7.8994141-21.203125-10.8134766-32.0976563  c-2.9833984-11.15625-5.2988281-22.7412109-6.8867188-34.4453125c0.3574219-7.3037109,3.1083984-65.8583984,3.2900391-133.9150391  c19.5927734-3.9648438,37.2578125-23.0693359,37.2578125-60.359375c0-36.8779297-16.9394531-56.1435547-36.0400391-60.6875  c3.7832031-25.1591797,7.421875-64.4003906,8.1621094-87.9863281c36.4736328-0.5371094,69.2773438-4.7666016,103.8710938-9.2255859  C163.1711426,13.0397949,203.217041,7.876709,250.7961426,7.876709c47.5859375,0,87.6455078,5.1650391,126.3886719,10.1601563  c34.5898438,4.4589844,67.3857422,8.6865234,103.8300781,9.2236328c0.7402344,23.5878906,4.3798828,62.8291016,8.1601563,87.984375  c-19.1005859,4.5458984-36.0380859,23.8115234-36.0380859,60.6894531c0,37.2900391,17.6630859,56.3945313,37.2558594,60.359375  c0.1826172,68.0566406,2.9335938,126.6113281,3.2910156,133.9169922c-1.5908203,11.7226563-3.90625,23.3066406-6.8896484,34.4394531  c-2.9033203,10.875-6.5400391,21.6738281-10.8115234,32.1035156c-4.0595703,9.90625-8.7880859,19.7011719-14.0537109,29.1103516  c-5.0048828,8.9492188-10.6318359,17.7919922-16.7236328,26.2841797  c-18.9677734,26.4423828-47.6914063,53.0537109-85.375,79.0966797  c-13.1142578,9.0654297-27.1738281,17.5976563-41.7880859,25.3554688  c-11.6796875,6.2021484-23.7246094,11.9160156-35.8007813,16.984375  C266.826416,620.0593262,255.5812988,623.7243652,250.7941895,625.189209L250.7941895,625.189209z"/>
<path d="M250.7961426-0.0002441c92.9667969,0,157.0058594,19.4404297,237.9580078,19.4404297  c0,22.7958984,4.8554688,76.2080078,9.5058594,102.6201172c-19.2304688,0-37.2460938,17.4863281-37.2460938,53.8730469  s18.015625,53.2705078,37.2460938,53.2705078c0,76.0214844,3.3261719,141.3183594,3.3261719,141.3388672  c-1.6328125,12.2734375-4.0449219,24.4326172-7.1835938,36.1455078c-3,11.2363281-6.75,22.3515625-11.1308594,33.0507813  c-4.1816406,10.1992188-9.0507813,20.2861328-14.46875,29.9726563c-5.1503906,9.2089844-10.9375,18.3017578-17.1972656,27.0283203  c-21.6708984,30.2070313-53.2490234,57.453125-87.2978516,80.984375  c-13.3828125,9.2519531-27.7070313,17.9423828-42.5703125,25.8330078  c-11.8925781,6.3134766-24.1552734,12.1318359-36.4462891,17.2910156  c-19.1005859,8.0185547-32.0400391,11.8544922-34.4951172,12.5566406  c-2.4580078-0.7021484-15.3984375-4.5380859-34.4980469-12.5566406  c-12.2910156-5.1591797-24.5546875-10.9775391-36.4472656-17.2910156  c-14.8623047-7.890625-29.1865234-16.5810547-42.5742188-25.8330078c-34.046875-23.53125-65.625-50.7773438-87.296875-80.9853516  c-6.2587891-8.7246094-12.0449219-17.8183594-17.1953125-27.0263672  c-5.4199219-9.6865234-10.2890625-19.7744141-14.4697266-29.9736328  c-4.3818359-10.6972656-8.1279297-21.8144531-11.1328125-33.0507813  c-3.1347656-11.7128906-5.5488281-23.8710938-7.1816406-36.1455078c0-0.0205078,3.3271484-65.3173828,3.3271484-141.3388672  c19.2324219,0,37.2470703-16.8837891,37.2470703-53.2705078s-18.0146484-53.8730469-37.2470703-53.8730469  c4.6484375-26.4121094,9.5068359-79.8242188,9.5068359-102.6201172  C93.842041,19.4401855,157.826416-0.0002441,250.7961426-0.0002441 M250.7961426,633.4050293  c0.0009766,0,0.0019531,0.0009766,0.0039063,0.0009766h-0.0078125  C250.7932129,633.4060059,250.7941895,633.4050293,250.7961426,633.4050293 M250.7961426,15.7536621  c-47.0732422,0-86.8642578,5.1298828-125.3447266,10.0917969c-32.46875,4.1865234-63.3730469,8.171875-97.3125,9.1308594  c-1.0703125,21.8828125-3.9150391,52.3486328-7.0107422,74.9394531c19.0449219,7.96875,35.1992188,29.3339844,35.1992188,66.0175781  c0,38.0947266-16.9931641,59.3779297-37.2792969,66.3955078c-0.3134766,63.7226563-2.7832031,117.9355469-3.2431641,127.5332031  c1.5400391,11.1386719,3.7568359,22.1503906,6.5947266,32.7529297c2.8300781,10.5839844,6.359375,21.0644531,10.4921875,31.1523438  c3.9414063,9.6162109,8.53125,19.1230469,13.6396484,28.2529297c4.8642578,8.6972656,10.3310547,17.2871094,16.2480469,25.5361328  c18.4414063,25.7050781,46.5185547,51.6816406,83.453125,77.2089844  c12.8759766,8.8984375,26.671875,17.2685547,41.0048828,24.8779297c11.4775391,6.09375,23.3066406,11.7050781,35.1572266,16.6796875  c13.0507813,5.4794922,22.9580078,8.8769531,28.3994141,10.6142578c5.4472656-1.7392578,15.3642578-5.1416016,28.3994141-10.6132813  c11.8476563-4.9736328,23.6767578-10.5859375,35.1572266-16.6806641c14.3359375-7.6113281,28.1308594-15.9804688,41-24.8769531  c36.9355469-25.5273438,65.0136719-51.5039063,83.4550781-77.2089844  c5.9238281-8.2587891,11.390625-16.8505859,16.2480469-25.5351563c5.109375-9.1357422,9.7001953-18.6435547,13.6425781-28.2597656  c4.1425781-10.1171875,7.671875-20.5957031,10.4863281-31.1376953c2.8388672-10.5966797,5.0566406-21.6074219,6.5986328-32.7626953  c-0.4648438-9.6992188-2.9296875-63.8808594-3.2421875-127.5332031  c-20.2861328-7.0175781-37.2783203-28.3007813-37.2783203-66.3955078c0-36.6806641,16.1552734-58.046875,35.1972656-66.0175781  c-3.0957031-22.5859375-5.9394531-53.0527344-7.0087891-74.9404297  c-33.9140625-0.9589844-64.8076172-4.9414063-97.2714844-9.1269531  C337.6818848,20.885498,297.8752441,15.7536621,250.7961426,15.7536621L250.7961426,15.7536621z"/>
<path fill="#FFFFFF" d="M250.7961426-0.0002441c92.9667969,0,157.0058594,19.4404297,237.9580078,19.4404297  c0,22.7958984,4.8554688,76.2080078,9.5058594,102.6201172c-19.2304688,0-37.2460938,17.4863281-37.2460938,53.8730469  s18.015625,53.2705078,37.2460938,53.2705078c0,76.0214844,3.3261719,141.3183594,3.3261719,141.3388672  c-1.6328125,12.2734375-4.0449219,24.4326172-7.1835938,36.1455078c-3,11.2363281-6.75,22.3515625-11.1308594,33.0507813  c-4.1816406,10.1992188-9.0507813,20.2861328-14.46875,29.9726563c-5.1503906,9.2089844-10.9375,18.3017578-17.1972656,27.0283203  c-21.6708984,30.2070313-53.2490234,57.453125-87.2978516,80.984375  c-13.3828125,9.2519531-27.7070313,17.9423828-42.5703125,25.8330078  c-11.8925781,6.3134766-24.1552734,12.1318359-36.4462891,17.2910156  c-19.1005859,8.0185547-32.0400391,11.8544922-34.4951172,12.5566406  c-2.4580078-0.7021484-15.3984375-4.5380859-34.4980469-12.5566406  c-12.2910156-5.1591797-24.5546875-10.9775391-36.4472656-17.2910156  c-14.8623047-7.890625-29.1865234-16.5810547-42.5742188-25.8330078c-34.046875-23.53125-65.625-50.7773438-87.296875-80.9853516  c-6.2587891-8.7246094-12.0449219-17.8183594-17.1953125-27.0263672  c-5.4199219-9.6865234-10.2890625-19.7744141-14.4697266-29.9736328  c-4.3818359-10.6972656-8.1279297-21.8144531-11.1328125-33.0507813  c-3.1347656-11.7128906-5.5488281-23.8710938-7.1816406-36.1455078c0-0.0205078,3.3271484-65.3173828,3.3271484-141.3388672  c19.2324219,0,37.2470703-16.8837891,37.2470703-53.2705078s-18.0146484-53.8730469-37.2470703-53.8730469  c4.6484375-26.4121094,9.5068359-79.8242188,9.5068359-102.6201172  C93.842041,19.4401855,157.826416-0.0002441,250.7961426-0.0002441 M250.7961426,633.4050293  c0.0009766,0,0.0019531,0.0009766,0.0039063,0.0009766h-0.0078125  C250.7932129,633.4060059,250.7941895,633.4050293,250.7961426,633.4050293 M250.7961426,12.6022949  c-47.2763672,0-87.1679688,5.1435547-125.7470703,10.1181641c-33.3173828,4.2958984-64.9775391,8.3789063-99.921875,9.1806641  c-0.9726563,22.703125-4.1044922,56.3525391-7.4638672,80.0615234  c18.9365234,6.7617188,35.5136719,27.3886719,35.5136719,63.9707031c0,37.75-17.2304688,58.2011719-37.2695313,64.0751953  c-0.265625,65.3447266-2.8388672,121.1884766-3.2636719,129.9951172  c1.5585938,11.3662109,3.8154297,22.6054688,6.7119141,33.4257813c2.8642578,10.7119141,6.4375,21.3203125,10.6210938,31.5322266  c3.9892578,9.734375,8.6347656,19.3564453,13.8046875,28.5976563c4.921875,8.7988281,10.4521484,17.4892578,16.4375,25.8339844  c18.6533203,25.9990234,46.9892578,52.2304688,84.2226563,77.9638672  c12.9755859,8.9677734,26.8779297,17.4023438,41.3183594,25.0693359  c11.5615234,6.1376953,23.4765625,11.7910156,35.4160156,16.8017578  c13.9394531,5.8515625,24.3525391,9.3603516,29.6181641,11.0136719c5.2724609-1.65625,15.6962891-5.1689453,29.6181641-11.0136719  c11.9365234-5.0097656,23.8515625-10.6630859,35.4150391-16.8017578  c14.4453125-7.6689453,28.3447266-16.1025391,41.3144531-25.0683594  c37.234375-25.7333984,65.5712891-51.9638672,84.2236328-77.9638672  c5.9931641-8.3544922,11.5234375-17.046875,16.4384766-25.8339844c5.1708984-9.2460938,9.8173828-18.8691406,13.8076172-28.6025391  c4.1943359-10.2421875,7.765625-20.8496094,10.6152344-31.5205078c2.8964844-10.8115234,5.1542969-22.0507813,6.7158203-33.4345703  c-0.4306641-8.9375-2.9970703-64.7392578-3.2626953-129.9941406c-20.0390625-5.8740234-37.2685547-26.3251953-37.2685547-64.0751953  c0-36.5820313,16.5771484-57.2089844,35.5126953-63.9707031c-3.359375-23.703125-6.4912109-57.3535156-7.4628906-80.0615234  c-34.9169922-0.8017578-66.5693359-4.8828125-99.8798828-9.1777344  C337.9855957,17.7478027,298.0773926,12.6022949,250.7961426,12.6022949L250.7961426,12.6022949z"/>
<path d="M250.7961426-0.0002441c92.9667969,0,157.0058594,19.4404297,237.9580078,19.4404297  c0,22.7958984,4.8554688,76.2080078,9.5058594,102.6201172c-19.2304688,0-37.2460938,17.4863281-37.2460938,53.8730469  s18.015625,53.2705078,37.2460938,53.2705078c0,76.0214844,3.3261719,141.3183594,3.3261719,141.3388672  c-1.6328125,12.2734375-4.0449219,24.4326172-7.1835938,36.1455078c-3,11.2363281-6.75,22.3515625-11.1308594,33.0507813  c-4.1816406,10.1992188-9.0507813,20.2861328-14.46875,29.9726563c-5.1503906,9.2089844-10.9375,18.3017578-17.1972656,27.0283203  c-21.6708984,30.2070313-53.2490234,57.453125-87.2978516,80.984375  c-13.3828125,9.2519531-27.7070313,17.9423828-42.5703125,25.8330078  c-11.8925781,6.3134766-24.1552734,12.1318359-36.4462891,17.2910156  c-19.1005859,8.0185547-32.0400391,11.8544922-34.4951172,12.5566406  c-2.4580078-0.7021484-15.3984375-4.5380859-34.4980469-12.5566406  c-12.2910156-5.1591797-24.5546875-10.9775391-36.4472656-17.2910156  c-14.8623047-7.890625-29.1865234-16.5810547-42.5742188-25.8330078c-34.046875-23.53125-65.625-50.7773438-87.296875-80.9853516  c-6.2587891-8.7246094-12.0449219-17.8183594-17.1953125-27.0263672  c-5.4199219-9.6865234-10.2890625-19.7744141-14.4697266-29.9736328  c-4.3818359-10.6972656-8.1279297-21.8144531-11.1328125-33.0507813  c-3.1347656-11.7128906-5.5488281-23.8710938-7.1816406-36.1455078c0-0.0205078,3.3271484-65.3173828,3.3271484-141.3388672  c19.2324219,0,37.2470703-16.8837891,37.2470703-53.2705078s-18.0146484-53.8730469-37.2470703-53.8730469  c4.6484375-26.4121094,9.5068359-79.8242188,9.5068359-102.6201172  C93.842041,19.4401855,157.826416-0.0002441,250.7961426-0.0002441 M250.7961426,633.4050293  c0.0009766,0,0.0019531,0.0009766,0.0039063,0.0009766h-0.0078125  C250.7932129,633.4060059,250.7941895,633.4050293,250.7961426,633.4050293 M250.7961426,3.1501465  c-47.8828125,0-88.0810547,5.1835938-126.9560547,10.1962891c-35.890625,4.6279297-69.8417969,9.0058594-107.8828125,9.2353516  c-0.3798828,23.5947266-4.7470703,70.7548828-8.9365234,96.5283203  c18.8251953,2.0429688,36.7041016,19.8457031,36.7041016,56.8232422c0,17.5888672-4.1796875,32.1914063-12.0869141,42.2294922  c-6.5175781,8.2744141-15.3613281,13.1875-25.1621094,14.0537109C6.3928223,303.5114746,3.4084473,365.4089355,3.161377,370.4118652  c1.6152344,12.0546875,3.9921875,23.9833984,7.0634766,35.4609375c2.9677734,11.0966797,6.6699219,22.0898438,11.0048828,32.671875  c4.1347656,10.0878906,8.9482422,20.0566406,14.3037109,29.6298828  c5.0927734,9.1044922,10.8144531,18.0976563,17.0058594,26.7285156  c19.2871094,26.8837891,48.4003906,53.8769531,86.5283203,80.2294922  c13.2783203,9.1757813,27.4960938,17.8037109,42.2607422,25.6416016c11.8125,6.2714844,23.9882813,12.0478516,36.1884766,17.1699219  c17.3320313,7.2753906,29.4775391,11.0566406,33.2783203,12.1796875c3.8066406-1.125,15.9707031-4.9150391,33.2763672-12.1796875  c12.1972656-5.1201172,24.3730469-10.8964844,36.1884766-17.1699219  c14.7675781-7.8398438,28.9853516-16.4667969,42.2568359-25.6416016  c38.1289063-26.3505859,67.2421875-53.34375,86.5283203-80.2294922c6.1992188-8.640625,11.921875-17.6337891,17.0078125-26.7294922  c5.3564453-9.5771484,10.1689453-19.5458984,14.3037109-29.6298828c4.3476563-10.6181641,8.0488281-21.609375,11.0019531-32.6689453  c3.0712891-11.4599609,5.4482422-23.3896484,7.0664063-35.4628906c-0.2626953-5.3339844-3.2314453-67.1064453-3.3134766-138.1953125  c-9.7998047-0.8662109-18.6435547-5.7792969-25.1611328-14.0537109  c-7.9072266-10.0380859-12.0869141-24.640625-12.0869141-42.2294922c0-36.9775391,17.8789063-54.7802734,36.703125-56.8232422  c-4.1894531-25.7626953-8.5556641-72.9228516-8.9365234-96.5283203  c-38.0068359-0.2294922-71.9570313-4.6064453-107.8417969-9.2324219  C338.8986816,8.3356934,298.6848145,3.1501465,250.7961426,3.1501465L250.7961426,3.1501465z"/>
<path id="bielaje" fill="#FFFFFF" d="M401.3625488,312.9763184c-20.0576172,14.6083984-33.1054688-14.3427734-61.7558594-23.3535156  c-28.7636719-9.046875-42.1650391-5.8876953-42.1650391-5.8876953l1.1816406-12.3457031  c0,0,6.2919922,3.4326172,9.4785156,3.8085938c55.0185547-37.4287109,38.1552734-88.0273438,31.96875-133.2617188  c-13.8896484,2.2011719-34.2705078,4.5361328-34.2705078,4.5361328l6.7832031-38.6572266l-8.8691406-19.0419922  c0,0-21.7080078,0.9902344-28.7490234,6.3857422c-7.0419922,5.3964844-10.7529297,18.2373047-10.7529297,18.2373047  l2.2763672,3.2724609l-5.5410156,10.3935547l1.5966797,2.3945313l0.2216797,13.6660156l-12.2783203,3.53125l-29.2138672-15.6748047  l-0.1035156-4.59375l10.1035156-34.90625l8.875-8.375l3.7246094,17.8984375l6.1142578,0.3046875l0.4990234-16.9599609  l147.0996094-4.0458984l14.3330078-5.3330078l-13.1894531-6.2089844l-148.4990234-4.4746094L250.036377,46.923584  l-4.9726563,0.3691406c0,0-3.328125,15.4570313-4.6171875,20.2919922c-2.2568359-15.4716797-8.703125-6.5537109-8.703125-6.5537109  l-5.3232422-0.9785156l-14.9550781,9.1455078l-8.09375,2.3955078c0,0-15.5292969-17.2333984-20.8457031,3.3876953  c6.8945313,19.0703125,17.2470703,4.1162109,17.2470703,4.1162109l11.0078125-0.8339844l1.9462891,8.0458984l-13.5976563,22.1455078  l-7.0742188,29.9306641l-14.8847656-5.9169922l0.4101563-12.3310547l-7.2910156,6.6972656l-0.7548828-6.5234375l-9.6064453,8.046875  l-18.4648438,5.1474609l-1.9902344,8.8183594c0,0-31.1904297,31.3007813-43.4257813,65.6347656  c0.9003906,5.2666016,10.4345703,12.9257813,10.4345703,12.9257813l13.0537109-15.7011719l3.625,3.5673828l-7.8339844,10.3242188  c0,0,5.8837891,4.1162109,13.9853516,0.8193359c2.5449219-1.0351563,1.6513672-7.3027344,1.6513672-7.3027344l6.1015625-4.671875  l0.6582031,17.2041016c0,0-11.6621094,17.9355469-14.6621094,31.2685547  c-12,10.3330078-14.7871094,23.5869141-16.7871094,28.3369141c-30.75-4.5-31.2705078-21.09375-48.3798828-1.6699219  c-8.8671875,27.4892578-14.3808594,37.5996094-25.0830078,48.8994141  c2.3349609,18.7587891-13.8681641,36.7675781,8.7919922,54.5087891c8.1396484-5.8769531,9.3876953-9.2431641,9.4785156-10.0556641  c-0.0273438-0.21875,0.0273438-0.2480469,0,0c0.3818359,2.9824219,5.15625,26.9853516,27.3701172,26.1337891  c0.9179688-1.2216797,9.3847656-31.6601563-10.9902344-37.5351563c6.5-12-10.0332031-10.3457031,24.25-38.25  c25.5,23.5976563,38.1875,24.59375,49.8125,29.84375c12.5732422,5.9443359,17.4433594,9.5625,20.2861328-1.2412109  c4.2792969-0.3046875,9.0859375,4.1289063,9.0859375,4.1289063l-3.5498047,6.8173828c0,0-5.8847656-0.1826172-7.953125,2.8398438  c-2.2070313,3.2333984-0.8525391,7.6689453-0.8525391,7.6689453s-10.1962891-0.3564453-18.0351563,5.1123047  c-8.3476563,5.8242188-12.2138672,15.4785156-12.2138672,15.4785156l16.8574219-1.8046875l20,6l2.4814453-3.0585938  l17.8007813,3.7900391l0.0166016-15.9462891l5.8085938-1.2314453c0,0,11.421875,100.8427734,66.5498047,107.96875  c-21.0380859-44.8515625-29.1132813-74.9833984-29.1132813-74.9833984h5.1123047c0,0,12.8535156,72.4072266,57.2314453,78.6757813  c-10.1005859-22.5527344-29.8779297-80.046875-29.8779297-80.046875l5.0244141,0.09375  c0,0,20.3896484,60.8300781,30.6748047,72.4267578c21.5849609-28.8837891-8.2666016-92.90625-8.2666016-92.90625l8.1123047-1.34375  c0,0,0.4658203,13.4882813,26.3115234,37.8056641c27.2382813,21.2246094,42.0410156,25.0107422,0.5410156,68.0888672  c-22.5380859,4.4179688-27.4160156,10.5947266-30.4970703,24.5546875  c2.4619141,6.5107422,21.4648438,6.6123047,21.4648438,6.6123047s-3.3271484,3.9160156,2.25,5.5  c11.5722656,3.2880859,36.7460938,4.9462891,36.1640625-16.9707031c2.4443359-0.7158203,3.6572266-3.0224609,3.6572266-3.0224609  s6.3779297,3.6728516,16.4902344,3.2431641c9.7646484-67.7324219,32.7871094-65.8769531,29.421875-80.3027344  c-0.4833984-2.0722656-33.1914063-25.7392578-33.1914063-25.7392578s9.7226563-15.1289063,12.5195313-14.8447266  c8.9472656,43.3681641,41.4130859,10.5107422,41.4130859,10.5107422s-19.2587891,5.6953125-15.6220703-7.8115234  c2.9824219-11.0771484,59.7890625-15.3369141,65.1855469-68.4501953  C478.373291,279.4812012,422.1125488,297.8620605,401.3625488,312.9763184z M57.3137207,333.454834  c-0.6308594-13.2285156,14.9228516-31.9902344,14.9228516-31.9902344l6.8417969,2.0205078  C79.0783691,303.4851074,62.8918457,331.4206543,57.3137207,333.454834z M143.7746582,218.8522949l-0.2353516-14.7929688  l6.0625-3.3779297l12.2871094-0.8134766L143.7746582,218.8522949z M238.8469238,216.0026855l-8.890625-31.7402344  l-10.609375-21.2382813l15.5908203,5.7294922l10.6640625,45.4306641L238.8469238,216.0026855z M343.2375488,508.0837402  c0,0,16.890625-26.9833984,25.3789063-35.5908203C359.8361816,510.3864746,343.2375488,508.0837402,343.2375488,508.0837402z   M398.645752,360.2751465l-5.9570313-30.2607422c0,0,12.7412109,8.5361328,24.4433594,0.3134766  c3.7285156,4.625,7.6777344,9.0126953,7.6777344,9.0126953L398.645752,360.2751465z"/>
<path d="M469.3361816,307.6589355c-5.8271484-9.4335938-18.125-15.375-36.8330078-11.25  c-20.6132813,4.5449219-33.2988281,20.8798828-45.9638672,18.9052734  c-10.6201172-1.6552734-27.8701172-22.7392578-54.3701172-29.8222656  c-8.7890625-2.3486328-22.8320313-3.6494141-32.6152344-3.1992188c0.5117188-2.6757813,1.0742188-6.4257813,1.296875-8.5810547  c2.1396484,0.9648438,4.7617188,2.1875,7.3691406,3.2412109c55.4492188-41.0439453,39.1875-81.3740234,32.9355469-137.5556641  c-2.2724609,0.4648438-22.6787109,3.9648438-32.9599609,5.6992188c-4.546875-11.375,16.5732422-33.6875-3.734375-57.171875  c-24.8632813,0.1513672-33.7763672,4.3701172-40.4912109,21.7207031c-0.3583984,0.9277344-1.0205078,3.2119141-1.4667969,4.7216797  c-0.5419922,1.8339844,0.875,2.8339844,3.2558594,3.2832031c-1.4101563,2.1220703-3.9707031,6.0019531-5.2460938,8.2363281  c-0.9677734,1.703125-2.0888672,3.9101563,1.1201172,4.34375c-0.3994141,1.1503906-1.3271484,4.078125-1.3046875,4.6220703  c0.0126953,0.3554688,0.0664063,0.4326172,1.7460938,0.4179688c0.2275391,0.1542969,0.2929688,0.8320313,0.3505859,1.8173828  c0.0722656,1.1953125-0.3486328,2.9287109-0.4306641,3.4921875c-0.0820313,0.5302734-0.1396484,1.6953125,0.0917969,2.1591797  c-6.90625,0.6699219-11.5625,2.6074219-11.5625,2.6074219s-9.75-7.375-26.09375-13.265625  c-1.078125-2.84375-2.84375-5.0888672-2.84375-5.0888672s2.2539063-6.0898438,3.0927734-11.3242188  c0.9199219-0.1591797,2.2460938-0.3359375,3.2539063-0.5302734c-1.7626953-13.2705078,4.3251953-22.671875,7.1855469-26.4550781  c0.8037109-0.4931641,3.4990234-2.5390625,4.3271484-3.7578125l3.609375,18.921875l9.4375,0.046875l-0.015625-17.828125  c16.4277344-0.5634766,141.7353516-4.0878906,143.3525391-4.3916016c3.6367188-0.6816406,20.6230469-7.2236328,20.6230469-7.2236328  s-16.4609375-6.7158203-20.8945313-7.3408203c-2.9667969-0.4179688-128.4169922-2.9101563-143.0966797-3.2939453l-0.015625-18.28125  l-8.828125-0.109375c0,0-2.0585938,10.0849609-3.03125,14.5253906c-0.234375-0.59375-1.8486328-3.0673828-4.2734375-3.0615234  c-4.1367188,0.0097656-4.6113281,2.2548828-4.6425781,2.3955078c-0.3027344-0.203125-1.0839844-1.78125-4.4189453-0.765625  c-3.0683594,0.9345703-3.0810547,2.2236328-3.0810547,2.2236328s-1.5654297-1.1992188-4.3964844,0.9482422  c-1.9648438,1.4902344-2.0732422,2.6054688-2.0732422,2.6054688s-2.0283203-0.453125-4.3222656,1.0917969  c-0.9199219,0.6201172-2.1064453,1.9570313-2.390625,3.5673828l-9.2451172-0.0458984  c-0.1386719-0.2128906-0.8974609-1.3994141-1.0498047-1.6015625c-2.0400391-2.7099609-5.1923828-4.4570313-8.7353516-4.4570313  c-6.1474609,0-11.1484375,5.2363281-11.1484375,11.6738281c0,6.4355469,5.0009766,11.671875,11.1484375,11.671875  c3.625,0,6.8447266-1.8271484,8.8808594-4.6425781c0.1533203-0.2119141,0.6357422-1.0292969,0.7753906-1.2519531  l7.8710938-0.0244141c0.0048828,1.5634766,0.0869141,4.1074219,1.9316406,5.8632813  c-2.8730469,3.8378906-9.40625,13.8544922-15.7314453,24.2617188c0.546875,0.4892578,1.2646484,1.0224609,2.0957031,1.4453125  c-1.2998047,2.0292969-4.9013672,9.8164063-4.9013672,19.0449219c-0.7382813,2.6757813-1.1103516,4.0732422-1.6259766,6.1826172  c-4.0771484-2.1611328-8.4169922-4.4365234-12.8544922-5.7597656c0.7070313-2.2314453,1.1953125-5.6992188,0.9384766-11.1376953  c-0.1328125-2.8212891-0.453125-2.8242188-1.5087891-1.9130859c-1.2314453,1.0644531-3.9638672,2.7431641-5.6796875,4.3789063  c0.046875-0.796875-0.25-3.4375-0.5625-4.1875c-4.109375,1.09375-9,2.890625-12.375,9.765625  c-8.1308594-0.1494141-16.4375,2.3125-20.75,5.9375c-0.2451172,2.3212891,0.3232422,5.7607422,0.25,8.25  c-9.5,7.8125-39.9580078,44.5-43.1962891,66.6835938c-0.2763672,1.8935547,3.3056641,9.0683594,7.8632813,11.7333984  c2.7080078,1.5830078,6.5,1.5410156,8.5-3.9169922c1.6689453-4.5537109,4.2431641-7.9501953,7.75-9.8544922l1.4794922,2.1455078  c-3.1787109,2.578125-5.2792969,4.4833984-6.3544922,7.7089844c-0.5,1.5-0.5302734,5.1962891,3.3330078,6.125  c4.3339844,1.0410156,9.7636719,0.2314453,12.125-0.9375c3.15625-1.5625,3.3027344-4.9277344,3.21875-5.84375  c-0.0722656-0.7929688-0.359375-1.703125-0.640625-2.28125c0.3535156-0.3613281,1.2519531-1.0146484,2.4580078-1.8271484  c0.3388672,5.7275391,0.0957031,10.9091797-0.2744141,15.9882813c-6.3408203,8.2744141-10.5791016,16.7724609-12.9697266,28.234375  c-9.625,7-14.5595703,17.5224609-16.5,26.2919922c-17.9765625-4.5751953-23.8701172-8.0019531-28.5625-10.0371094  c-2.9453125-1.2783203-7.3222656-0.4257813-9.9853516,1.0507813c-6.9199219,3.8369141-11.7792969,7.3955078-12.875,12.3496094  c-7.9199219,35.8173828-21.5214844,38.5019531-22.2441406,47.1699219  c-1.6933594,20.3271484-4.8164063,28.0371094-4.5576172,32.9736328c0.2246094,4.2480469,3.9248047,17.3261719,15.2402344,22.8603516  c4.5263672-3.5732422,7.2324219-6.1875,8.5673828-8.1171875c0.1630859,0.7216797,0.3701172,1.4414063,0.4853516,2.1933594  c2.3896484,15.5566406,17.7001953,19.7744141,27.2470703,21.3154297  c12.4423828-22.3554688-2.7958984-39.9882813-7.1367188-40.5673828c-1.1728516,0.2304688-2.953125,1.0097656-3.1542969,0.3652344  c-0.1699219-0.5429688,0.3076172-0.4951172,1.8115234-1.2753906c3.6669922-1.9013672-1.4306641-9.9433594-0.4091797-12.1953125  c1.9335938-4.2587891,17.2001953-22.0976563,21.2509766-22.1455078c3.9072266-0.046875,19.5458984,16.7753906,33.4042969,23.1582031  c4.3935547,2.0253906,10.0419922,1.2412109,28.7412109,11.7548828c3.828125,2.1542969,7.1220703-0.4902344,8.390625-3.4677734  c0.3261719-0.7685547,0.6298828-1.4833984,0.9199219-2.1699219c1.2548828,0.0615234,3.4160156,0.578125,6.7851563,2.5283203  l-3.2294922,4.3603516c-0.3925781-0.0546875-0.7900391-0.09375-1.1962891-0.09375  c-4.6347656,0-8.3916016,3.7548828-8.3916016,8.3828125c0,0.5888672,0.0771484,1.15625,0.1923828,1.7099609  c-1.8496094,0.2519531-4.9746094,0.9541016-8.6630859,2.0419922c-2.7558594,0.8125-7.5058594,3.1455078-11.3515625,5.8027344  c-4.3642578,3.2568359-8.2822266,7.8203125-10.4794922,14.2119141c-0.3613281,1.0517578-0.5830078,1.9755859-0.8457031,3.1279297  c0.7558594-0.1513672,1.5224609-0.3125,2.3935547-0.5302734c6.3779297-1.5966797,14.7294922-2.265625,18.8496094-2.5136719  c-0.2773438,0.7060547-0.4892578,1.3339844-0.6298828,1.8027344c0.8183594,0.1689453,17.8974609,4.0224609,21.4882813,4.9833984  c0.1503906-0.7832031,0.4228516-2.0390625,0.7373047-3.9921875c3.2441406,1.2431641,10.4199219,3.8310547,18.7558594,4.75  c0.296875-2.4863281-0.3251953-12.1787109-0.1064453-17.2568359l2.3818359-0.8896484  c3.0087891,24.8583984,18.5087891,101.2753906,69.7587891,108.4414063  c-1.5419922-15.9980469-18.9492188-32.4248047-28.5966797-75.9824219c-0.0244141-0.046875,2.1289063,0.0595703,2.1289063,0.0595703  s10.4052734,72.7587891,59.4033203,79.6962891c1.9287109-9.0576172-22.0810547-48.5498047-28.6386719-79.9658203  c1.2304688-0.0234375,2.7255859,0.0458984,2.7255859,0.0458984s10.7138672,46.5244141,30.4882813,73.2167969  c21.2773438-26.1494141,4.9794922-66.359375-5.4199219-93.8476563c0.4433594-0.5410156,1.0273438-1.1503906,1.5195313-1.5195313  c0.2705078-0.0117188,2.4228516,0.2275391,2.7646484,0.2138672c0.21875,3.75,2.7382813,13.6259766,11.1298828,19.6513672  c8.4902344,13.2832031,17.5703125,20.0273438,28.5703125,26.2773438  c2.7265625,2.1171875,12.4394531,13.9042969,13.5371094,18.5488281c1.0546875,4.4589844-7.4609375,16.75-15.1640625,27.7255859  c-3.2431641,4.6210938-7.2167969,9.2441406-11.0273438,11.2714844c-5.7744141,3.0722656-27.5654297-2.2666016-31.3701172,27.3730469  c3.0712891,2.9091797,12.4970703,7.0341797,21.7929688,5.4179688c-0.109375,0.96875-0.3173828,2.7041016-0.4912109,3.7226563  c2.9492188,2.6923828,11.2285156,4.4941406,19.3974609,4.5742188c10.7294922,0.1074219,25.1064453-6.4443359,22.4013672-19.4443359  c2.4013672-1.4033203,2.4355469-2.5380859,10.8017578-0.203125c8.1523438,2.2753906,10.0009766-0.4794922,10.2626953-4.6767578  c0.4902344-7.8388672,1.4570313-13.8115234,3.9091797-21.7382813c7-22.625,19.0693359-39.9511719,24.1503906-49.1210938  c2.1132813-3.8144531,0.6728516-7.0791016-1.6503906-8.6914063c-6.9375-4.8125-23.8125-16.9375-29.25-21.6875  c-1.6875-1.4746094-1.875-2.0625-0.25-3.9589844c2.3935547-2.7929688,6.4580078-7.5,8.6591797-10.25  c0.6328125,5,2.6445313,10.1835938,4.703125,13.3232422c7.6796875,11.71875,25.9677734,13.9257813,42.7597656-8.0888672  c-2.0253906,0.7226563-3.6582031,1.3632813-6.3007813,2.2138672c-12.2724609,3.9550781-15.3574219-2.5751953-10.7558594-10.0498047  c7.1337891-2.7509766,17.5-5.9501953,27.5595703-12.5644531c9.125-6,23.4501953-18.4208984,30.5-31.375  C476.107666,342.4655762,477.2111816,320.4089355,469.3361816,307.6589355z M191.9572754,83.0202637  c-4.3740234,0-7.9169922-3.8037109-7.9169922-8.4960938c0-4.6933594,3.5429688-8.4980469,7.9169922-8.4980469  c4.3701172,0,7.9150391,3.8046875,7.9150391,8.4980469C199.8723145,79.2165527,196.3273926,83.0202637,191.9572754,83.0202637z   M353.6066895,298.2624512c2.8535156,1.71875,5.1435547,3.2675781,6.6845703,4.3603516  c-0.7226563,7.1435547-2.6591797,19.3925781-6.1123047,33.4433594c-1.2978516,5.2841797-2.8671875,10.6181641-4.6796875,15.9707031  c-1.1523438-1.4941406-2.9501953-2.4853516-4.921875-2.4853516c-0.3300781,0-0.6542969,0.0351563-0.9726563,0.0888672  c-0.1972656-0.0927734-0.3925781-0.1826172-0.5917969-0.2773438c1.71875-5.1152344,3.2070313-10.2080078,4.4375-15.2490234  c3.9121094-16.0273438,5.6660156-29.2910156,6.046875-34.0664063  C353.520752,299.744873,353.5783691,298.7341309,353.6066895,298.2624512z M394.317627,332.4978027  c7.7470703,4.4550781,14.1796875,4.7275391,21.1240234,0.8417969c0.3935547-0.2197266,1.0800781-0.4892578,1.4726563-0.7763672  c3.1376953,1.7255859,5.7998047,4.6777344,7.0380859,6.9082031c-9.4921875,5.6171875-18.6777344,13.2910156-24.4882813,19.1015625  C399.7111816,351.5749512,396.8352051,340.5895996,394.317627,332.4978027z M169.8430176,379.8884277  c2.1425781-1.5205078,3.5439453-4.0097656,3.5439453-6.8359375c0-0.3808594-0.0341797-0.75-0.0820313-1.1162109  l24.8154297-43.7890625c3.2978516-0.6591797,10.6181641-0.6337891,14.1523438,0.4833984  c-2.3408203,13.0898438-9.7666016,23.0703125-18.9277344,32.5458984c-5.84375,6.046875-11.375,13.7197266-13.5791016,22.1289063  l-9.921875,1.6201172C169.9348145,382.9812012,169.942627,381.2468262,169.8430176,379.8884277z M194.4221191,362.2194824  c9.1767578-9.4863281,16.8027344-19.6728516,19.2753906-33.0654297c2.7919922,1.1484375,4.7402344,2.6210938,6.0693359,4.1904297  c0.5742188,10.6826172-0.8046875,25.0410156-16.1962891,29.1757813  c-1.5556641,0.7900391-18.5996094,19.7167969-18.7011719,19.9511719l-3.4794922,0.5683594  C183.5969238,375.2575684,188.8381348,367.9899902,194.4221191,362.2194824z M196.4377441,326.5114746  c0,0-2.8212891-7.3466797-1.4951172-11.7314453c3.9306641-4.1689453,11.5546875-4.8613281,11.5546875-4.8613281  s6.2138672,10.3652344,22.0966797,10.1025391c-2.484375,2.8466797-6.7275391,8.1982422-8.390625,11.1513672  C213.1027832,323.6022949,196.4377441,326.5114746,196.4377441,326.5114746z M138.0861816,211.3259277  c-0.0029297-0.0439453-0.0244141-0.4794922-0.0498047-1c1.3447266-0.8574219,2.8105469-1.7705078,4.2490234-2.6552734  c0.0810547,0.8027344,0.1982422,1.9609375,0.2177734,2.1962891c0.9619141,11.4472656,0.1425781,23.7666016,0.0830078,25.2089844  c-0.0986328,0.0810547-4.1611328-0.1376953-4.8330078-0.1669922  C138.2180176,228.2058105,138.7443848,220.0192871,138.0861816,211.3259277z M160.8986816,144.4401855  c0.0224609,0.6572266,0.3115234,1.5654297,0.5039063,1.3007813c1.6972656-2.3378906,4.8808594-3.8408203,8.0966797-5.8417969  c0.2011719,0.0605469,0.3994141,0.1337891,0.5996094,0.1962891c-0.3652344,2.7978516-2.0683594,6.9824219-4.5771484,11.8203125  c-3.5400391-4.1728516-7.3896484-7.6044922-10.4599609-10.0644531c0.6152344,0.0136719,1.4199219-0.0917969,2.9462891-0.6455078  c1.1337891-0.5263672,2.140625-1.453125,2.7607422-2.6552734c0.0703125,0.0068359,0.3671875,0.015625,0.4365234,0.0244141  C160.6896973,140.5651855,160.8205566,142.2126465,160.8986816,144.4401855z M225.1418457,235.0407715  c-28.3339844,0.7705078-68.7324219,1.9326172-80.4609375,0.2050781c-0.0283203-1.2382813,0.2402344-7.046875,0.1582031-13.5703125  c0.0742188-0.0703125,0.1435547-0.1445313,0.21875-0.2148438c16.4677734-18.5761719,38.8808594-36.1933594,34.9033203-53.1767578  c-0.234375-0.953125-1.046875-1.328125-0.7910156,0.0410156c0.5810547,3.3134766,0.8886719,8.1083984-4.7783203,16.4433594  c0.1376953-1.3193359,0.2109375-2.8535156,0.2158203-4.5722656c-0.015625-5.6523438-0.8271484-12.9521484-3.09375-18.8154297  c0.1181641-0.453125,0.1884766-0.9414063,0.1884766-1.4716797c-0.0019531-0.3310547-0.0361328-0.6416016-0.0849609-0.9423828  c3.5068359-6.2626953,5.9794922-11.8232422,6.4628906-15.7783203c15.3134766,7.0878906,28.8867188,20.1777344,37.1669922,35.90625  c6.6591797,12.6220703,9.8603516,30.8271484,9.8515625,46.4521484c0,1.3925781-0.0253906,2.7666016-0.0742188,4.1162109  c-0.0175781,0.4570313-0.0341797,1.0566406-0.0322266,1.7626953  C224.998291,232.423584,225.0393066,233.666748,225.1418457,235.0407715z M144.3752441,199.6843262  c0.6894531,0.2607422,2.0957031,0.8798828,3.2792969,1.3632813c-1.0322266,0.6533203-2.2617188,1.4267578-3.0595703,1.9257813  c0.0439453-0.3427734,0.0751953-0.6933594,0.0751953-1.0654297  C144.6691895,201.1530762,144.5510254,200.3190918,144.3752441,199.6843262z M166.295166,165.3942871  c1.4833984-0.1445313,2.90625-0.7197266,3.9208984-1.7314453c1.6972656,5.2324219,2.4042969,11.5869141,2.390625,16.5332031  c0.0097656,2.7802734-0.0751953,5.7041016-0.2626953,7.3925781c-1.0605469,1.3779297-2.2753906,2.8447266-3.65625,4.4013672  c0.1904297-1.9462891,0.3056641-4.2802734,0.3076172-6.8544922  C168.9797363,178.8493652,168.3215332,171.322998,166.295166,165.3942871z M161.0734863,159.9089355  c0.0107422-5.1425781,8.9277344-5.1425781,8.9267578,0C169.989502,165.0495605,161.0842285,165.0495605,161.0734863,159.9089355z   M165.3537598,169.3210449c1.1865234,4.9951172,1.6523438,10.8330078,1.640625,15.8144531  c0.0029297,3.28125-0.1962891,6.2158203-0.4824219,8.2753906c-1.0244141,2.5957031-4.6474609,5.359375-6.2802734,5.9726563  c-1.3955078,0.5253906-6.2705078,1-10.7548828,0.4941406c-0.0019531,0.0019531-0.0126953,0.0087891-0.0166016,0.0117188  c-1.2685547-0.4365234-3.3095703-1.1523438-5.0195313-1.9726563c5.6328125-6.7597656,13.65625-17.4179688,20.3730469-27.7509766  C164.9953613,169.8835449,165.1730957,169.6032715,165.3537598,169.3210449z M158.9797363,202.4880371  c-2.2207031,2.265625-9.3222656,9.6523438-13.0625,13.546875c-0.0224609-0.3974609-0.4003906-7.0625-0.7753906-10.109375  c2.8662109-1.7402344,5.0908203-3.0585938,5.0908203-3.0585938  C151.920166,202.9919434,157.1047363,203.0505371,158.9797363,202.4880371z M170.6164551,156.6276855  c-0.7177734-0.9179688-1.8076172-1.6298828-2.9384766-1.9833984c-0.28125-0.3759766-0.4892578-0.6748047-0.7773438-1.0410156  c2.6738281-5.0283203,4.5517578-9.4921875,5.0966797-12.8847656c1.3935547,0.4833984,2.7802734,1.0019531,4.1513672,1.5859375  C176.0441895,145.3581543,173.8967285,150.557373,170.6164551,156.6276855z M153.3459473,140.5075684  c-0.703125-0.5341797-1.3378906-0.9990234-1.8857422-1.390625c2.4267578-0.5654297,4.8417969-0.8271484,7.5791016-0.6923828  C157.9836426,139.9187012,155.904541,140.7624512,153.3459473,140.5075684z M155.0461426,144.4138184  c3.0664063,2.5537109,6.6962891,5.9804688,9.9208984,9.9892578c-1.5205078,0.1132813-2.9931641,0.6816406-4.0458984,1.703125  c-6.0849609-7.5820313-13.8574219-12.7763672-16.3994141-14.3730469c1.9238281-1.1982422,3.4433594-1.7636719,4.2958984-2.0195313  C149.873291,140.4196777,152.1984863,142.0388184,155.0461426,144.4138184z M160.9709473,163.7536621  c0.8583984,0.8095703,1.9824219,1.3242188,3.1826172,1.5478516c0.1708984,0.4628906,0.3349609,0.9365234,0.4892578,1.4277344  c-0.4960938,0.78125-0.9951172,1.5625-1.5078125,2.3476563c-6.8017578,10.4677734-14.8486328,21.1992188-20.4326172,27.8535156  c-1.125-1.1103516-2.6220703-1.7880859-4.2041016-2.0292969c5.6376953-6.7568359,13.5615234-17.3427734,20.3154297-27.7353516  C159.5539551,166.0192871,160.263916,164.885498,160.9709473,163.7536621z M236.529541,236.2966309  c0.0478516,0.0205078,0.0742188,0.03125,0.0917969,0.0371094c0.0029297-0.0009766,0.0146484-0.0039063,0.0146484-0.0039063  s0.0292969,0.0185547-0.0146484,0.0039063c-0.6318359,0.1513672-67.1914063,16.0507813-99.9384766,11.03125  c0-1.2167969,0.6904297-8.9501953,0.8740234-10.2880859C162.5031738,238.6218262,199.7434082,238.1931152,236.529541,236.2966309z   M248.333252,234.048584c0.4326172,2.1181641,1.1074219,4.1845703,2.03125,6.1386719  c0.1132813,0.2402344,0.2910156,0.6953125,0.5136719,1.1953125c-0.6640625-0.0556641-1.3261719-0.125-1.984375-0.2128906  c-0.8837891-0.1181641-1.5302734-0.1220703-2.1201172-0.8203125c-0.4628906-0.546875-0.8681641-1.140625-1.2080078-1.7714844  c-0.6640625-1.2304688-1.0742188-2.578125-1.3603516-3.9414063c-0.7460938-3.546875-0.8193359-7.2128906-0.6376953-10.8212891  c0.1240234-2.4638672,0.1992188-5.421875,1.1679688-7.7978516c0.8339844,2.2929688,1.8457031,4.8837891,3.0566406,7.6357422  C247.5637207,227.1286621,247.6350098,230.6325684,248.333252,234.048584z M248.4709473,268.9782715l-2.8896484-15.7685547  l20.84375-2.5878906l1.3554688,1.3095703l1.6474609,13.1953125L248.4709473,268.9782715z M269.677002,267.1149902  l0.7939453,6.3583984l-20.4873047,3.7646484l-1.1523438-6.2929688L269.677002,267.1149902z M251.1359863,249.4919434  l1.0117188-1.1533203c0.7226563-1.3691406,1.2216797-3.0351563,1.5322266-4.6337891  c2.0722656,0.2480469,4.2617188,0.2744141,6.328125,0.0693359c0.0888672,0.1035156,0.1728516,0.2119141,0.2636719,0.3154297  c0.8505859,1.0498047,1.6845703,2.0693359,2.6044922,3.1025391l0.7597656,0.734375L251.1359863,249.4919434z   M257.4289551,241.8483887c-1.0146484,0.0117188-2.0302734-0.0058594-3.0419922-0.0830078  c-1.0673828-0.0810547-1.1640625-0.4111328-1.65625-1.3300781c-0.7236328-1.3466797-1.3203125-2.7607422-1.7783203-4.21875  c-0.8125-2.5820313-1.2333984-5.7636719-1.3378906-8.6376953c2.3193359,4.7412109,5.2119141,9.7060547,8.7753906,14.2285156  C258.0695801,241.8239746,257.7492676,241.845459,257.4289551,241.8483887z M238.9709473,237.322998  c0.3730469-0.2724609,2.4892578-0.6318359,3.6787109-0.7373047c0.0585938,0.1972656,0.0986328,0.4003906,0.1630859,0.5947266  c0.4052734,1.2373047,0.9589844,2.4257813,1.6982422,3.5c0.0234375,0.0341797,0.0507813,0.0761719,0.0761719,0.1132813  c-0.8710938,0.0087891-1.4482422-0.0136719-2.2060547-0.0136719c-1.953125,0-2.5507813-0.0439453-3.0039063-0.2373047  c-0.6728516-0.2880859-1.0644531-0.9042969-1.1376953-1.8027344  C238.1955566,238.2058105,238.5305176,237.6452637,238.9709473,237.322998z M236.0861816,234.8669434  c-0.4384766-0.1425781-1.5107422-0.6123047-1.5107422-1.9560547c0-0.9814453,0.6582031-1.7333984,1.6816406-1.9023438  c1.9941406-0.2070313,4.3466797-0.3369141,5.3710938-0.3730469c0.1005859,1.3867188,0.2773438,2.7744141,0.5605469,4.1367188  c-0.8369141,0.0615234-1.9091797,0.2119141-2.7548828,0.2265625  C238.5119629,235.0144043,236.8029785,235.1003418,236.0861816,234.8669434z M239.1682129,215.3044434  c-1.0849609-12.8173828-4.0947266-24.1972656-7.7695313-32.8330078c-2.6064453-6.125-6.3759766-13.3964844-10.0849609-17.9091797  c3.4804688,2.4257813,10.3242188,5.0439453,13.1103516,6.0449219c2.5039063,13.9082031,5.265625,30.0898438,9.5371094,43.2392578  c0.0654297,0.1875,0.1386719,0.390625,0.2060547,0.5839844C242.779541,214.6032715,240.9348145,214.8894043,239.1682129,215.3044434  z M242.2844238,216.8679199c-0.1787109,0.8935547-0.2451172,1.9453125-0.3115234,2.4072266  c-0.1142578,0.8046875-0.2060547,1.6142578-0.2773438,2.4267578c-1.296875,0.0537109-3.9248047,0.2978516-4.3935547,0.3388672  c-1.0205078,0.0898438-1.9228516-0.3359375-2.1259766-1.1318359c-0.1748047-0.6865234,0.1630859-1.6875,0.4570313-2.1054688  c0.2949219-0.4179688,1.1103516-0.8359375,2.8466797-1.2167969  C240.0539551,217.2419434,241.154541,217.0290527,242.2844238,216.8679199z M236.036377,224.1520996  c0.7783203-0.1396484,3.7822266-0.3857422,5.5283203-0.4492188c-0.0800781,1.6367188-0.0888672,3.2773438-0.0390625,4.9082031  c-1.5097656,0.0917969-3.984375,0.3574219-5.7929688,0.4257813c-0.8232422,0.0527344-2-0.5566406-2.0205078-2.2783203  C233.6906738,224.932373,235.6369629,224.2243652,236.036377,224.1520996z M236.1643066,237.9899902  c-0.0351563,0.2226563-0.0507813,0.4521484-0.03125,0.6865234c0.1240234,1.5224609,0.9511719,2.7402344,2.1337891,3.5292969  c0.0478516,0.0322266,0.1054688,0.0595703,0.1601563,0.0878906c-0.0107422,0.0302734-0.0253906,0.0605469-0.0332031,0.0898438  c-0.6669922,2.0410156-2.0078125,5.1044922-4.3076172,8.4003906c-0.1621094,0.2324219-0.3339844,0.4628906-0.5009766,0.6943359  c-3.2041016-3.0058594-4.8925781-7.3798828-5.7490234-11.5185547  C231.723877,239.0769043,234.6115723,238.3747559,236.1643066,237.9899902z M236.9758301,249.9450684  c1.3740234-2.2470703,2.5927734-4.6044922,3.3759766-7.2080078c0.0039063-0.015625,0.0048828-0.0283203,0.0078125-0.0439453  c0.4628906,0.0302734,0.9863281,0.0439453,1.5917969,0.0439453c1.2041016,0,2.6533203,0.0087891,4.4521484-0.0068359  c0.0449219,0.0166016,0.0888672,0.0410156,0.1337891,0.0517578c1.3583984,0.3154297,2.7470703,0.3564453,4.1201172,0.4765625  c-0.1513672,1.1923828-0.625,2.671875-0.9628906,3.4726563l-2.8876953,3.3017578l-1.5976563,0.2001953l-3.1513672,0.3945313  l0.5722656,3.1230469l0.1611328,0.875l-0.9423828,1.078125c-5.8203125,6.2636719-14.2695313,12.9121094-21.0419922,20.8164063  c-0.2929688-3.1650391,2.9482422-8.9609375,5.9648438-13.0761719  C230.2111816,258.7526855,234.0432129,254.7399902,236.9758301,249.9450684z M242.4182129,259.4226074l1.0351563-1.1796875  l4.8232422,26.3222656c-8.9970703,7.9404297-25.7041016,27.9589844-29.1865234,32.1621094  c-3.7226563-1.2744141-7.6054688-3.4882813-10.5986328-7.265625  C214.9992676,279.9284668,230.6340332,271.822998,242.4182129,259.4226074z M220.6379395,317.2097168  c1.8652344-2.2460938,6.0332031-7.2255859,10.8574219-12.7509766c5.7382813-6.5703125,12.4082031-13.8994141,17.0966797-18.1679688  l2.9638672,16.171875l-0.8222656,0.5673828c-8.6396484,6.0029297-16.9179688,11.7392578-20.7402344,15.2431641  C228.0695801,318.4147949,224.5266113,318.2956543,220.6379395,317.2097168z M251.3693848,306.3532715l0.796875-0.5566406  l1.2919922,7.0488281c-3.4296875,0.1279297-7.0263672-0.0048828-10.6767578-0.5761719  C245.0773926,310.7390137,248.7414551,308.0817871,251.3693848,306.3532715z M250.3449707,279.2058105l20.3740234-3.7431641  l13.5917969,108.84375c0,0,2.2080078,17.859375-2.7070313,27.0537109  c-7.7900391-8.7246094-11.4335938-23.9511719-11.4335938-23.9511719L250.3449707,279.2058105z M275.520752,289.5056152  c5.828125-4.171875,10.5556641-7.8798828,13.7099609-12.0039063c1.6748047-2.1894531,3.1835938-5.5976563,3.7783203-7.8017578  c1.0146484,0.5419922,4.6191406,2.5429688,5.0771484,2.7509766c-0.1044922,2.4082031-0.7744141,6.5869141-1.4033203,9.3408203  c-2.1923828,9.6035156-7.9414063,20.3740234-18.9160156,25.859375l-2.2675781-18.1689453  C275.505127,289.4880371,275.520752,289.5056152,275.520752,289.5056152z M275.1174316,286.2214355l-0.0234375,0.0166016  l-2.6123047-20.9267578c0.3837891,0.1503906,0.7402344,0.2929688,0.8535156,0.3476563  c1.6542969,0.7988281,3.1630859,1.9238281,4.2802734,3.3935547c3.2392578,4.2646484,2.3027344,10.3359375,0.421875,15.0253906  C277.0100098,284.8649902,276.0178223,285.5876465,275.1174316,286.2214355z M288.1662598,273.7233887  c-1.6777344,2.8789063-4.5292969,5.7353516-7.4414063,8.1953125c1.1796875-3.9052734,1.5507813-8.125-0.2011719-11.8837891  c-1.5908203-3.4130859-4.7617188-5.8427734-8.3193359-6.9443359l-0.9765625-7.828125l0.0429688,0.0410156  c5.1669922,4.3691406,11.9912109,9.0693359,18.9716797,13.0429688  C289.8361816,269.8933105,289.0236816,272.2526855,288.1662598,273.7233887z M278.0285645,309.751709  c1.8916016-0.7119141,3.6640625-1.703125,5.3154297-2.8837891c-1.4335938,6.5429688-2.5097656,13.3916016-3.1933594,19.8847656  L278.0285645,309.751709z M284.067627,313.7692871c2.5166016,1.9335938,8.7958984,6.7246094,12.6923828,9.5478516  c3.4375,2.4941406,7.2919922,5.2099609,11.3759766,7.9755859c-2.1523438,0.9970703-3.7011719,3.1943359-3.7011719,5.6621094  c0,0.1025391,0.0117188,0.2021484,0.0166016,0.3037109c-8.8701172-5.9980469-16.5917969-11.7373047-21.6777344-15.6318359  C283.1643066,318.9353027,283.6008301,316.2800293,284.067627,313.7692871z M305.6711426,340.6052246  c0.9511719,1.2802734,2.3691406,2.203125,3.9726563,2.4853516c0.6826172,0.4414063,1.3710938,0.8808594,2.0625,1.3212891  c-1.3076172,3.3623047-2.7382813,6.8125-4.3300781,10.3613281c-1.3671875,3.0478516-4.2333984,5.4697266-6.9306641,6.7470703  c-0.7060547-4.0712891-0.5087891-7.2695313,0.59375-9.7304688  C302.7619629,347.9440918,304.2932129,344.2165527,305.6711426,340.6052246z M310.6672363,341.1872559  c-2.28125,0-4.2324219-1.9501953-4.2324219-4.2324219s1.9511719-4.2314453,4.2324219-4.2314453  c2.2822266,0,4.2324219,1.9492188,4.2324219,4.2314453S312.9494629,341.1872559,310.6672363,341.1872559z M316.895752,337.0456543  c4.7089844,2.9921875,9.5644531,5.9130859,14.3701172,8.5410156c3.3876953,1.8564453,6.6572266,3.5419922,9.8291016,5.0742188  c-1.6425781,1.1386719-2.75,3.0351563-2.75,5.1230469c0,0.4794922,0.0644531,0.9472656,0.1738281,1.4003906  c-3.4414063-1.6523438-6.9716797-3.4667969-10.6132813-5.4560547c-5.0683594-2.7744141-10.1542969-5.8378906-15.0585938-8.9619141  C315.1535645,341.8669434,316.8557129,339.6091309,316.895752,337.0456543z M339.2111816,359.7224121  c0.3486328,0.1630859,0.6982422,0.3291016,1.0439453,0.4892578c1.0585938,1.0341797,2.4667969,1.7021484,3.9980469,1.7871094  c0.4560547,0.1953125,0.9052734,0.3740234,1.359375,0.5634766c-1.1767578,2.9619141-2.4121094,5.9228516-3.7373047,8.8779297  c-1.3662109,3.046875-4.2324219,5.46875-6.9306641,6.7470703c-0.7050781-4.0722656-0.5078125-7.2695313,0.5947266-9.7304688  C336.8430176,365.5476074,338.0568848,362.6335449,339.2111816,359.7224121z M344.5773926,360.0153809  c-2.2822266,0-4.2324219-1.9492188-4.2324219-4.2314453s1.9501953-4.2324219,4.2324219-4.2324219  c2.28125,0,4.2324219,1.9501953,4.2324219,4.2324219S346.8586426,360.0153809,344.5773926,360.0153809z M350.8098145,355.7839355  c0-0.2900391-0.0292969-0.5751953-0.0703125-0.8564453c10.2265625,4.0976563,19.28125,6.2246094,27.3671875,6.2089844  c6.6318359-0.0058594,12.6523438-1.3867188,18.4453125-4.2539063c0.0234375,2.7216797-0.2695313,5.4873047-0.6708984,7.9541016  c-5.6240234,2.2080078-11.5361328,3.3007813-17.7216797,3.3007813h-0.0527344  c-9.4726563-0.0146484-19.5234375-2.4472656-30.5371094-6.9248047  C349.4787598,360.1296387,350.8098145,358.072998,350.8098145,355.7839355z M332.958252,288.7780762  c7.1015625,2.1972656,13.6152344,5.4121094,18.7099609,8.3427734c-0.0244141,0.6845703-0.0722656,1.6064453-0.1650391,2.7685547  c-0.4472656,5.6015625-2.3457031,18.7958984-5.9960938,33.7509766c-1.1191406,4.5888672-2.5429688,9.5615234-4.3105469,14.8466797  c-2.8984375-1.4169922-5.8828125-2.9599609-8.9716797-4.6542969c-4.9970703-2.7324219-10.0644531-5.7900391-14.9638672-8.9208984  c7.3164063-22.0351563,8.8134766-38.921875,8.9746094-47.8105469  C328.5129395,287.5515137,330.7746582,288.1022949,332.958252,288.7780762z M324.239502,286.7331543  c-0.1201172,8.0322266-1.4042969,24.6308594-8.5625,46.5898438c-1.1074219-1.5029297-2.8583984-2.5175781-4.7958984-2.5888672  c-0.4785156-0.3203125-0.9570313-0.640625-1.4296875-0.9609375c6.4941406-20.4414063,7.7626953-36.4970703,7.8759766-43.9667969  C319.5812988,286.0290527,321.9074707,286.3308105,324.239502,286.7331543z M315.2492676,285.6218262  c-0.0253906,7.0976563-1.0136719,22.3554688-7.5136719,42.9853516c-3.5019531-2.3955078-6.8066406-4.7363281-9.8037109-6.9091797  c-3.9814453-2.8867188-10.875-8.1591797-13.4384766-10.1357422c0.5117188-2.5605469,1.0488281-4.9023438,1.5888672-6.9169922  c6.5068359-5.9433594,10.6269531-14.578125,11.7539063-19.1738281  C299.4230957,285.329834,306.6105957,284.9294434,315.2492676,285.6218262z M338.5539551,142.9909668  c1.9960938,16.7324219,4.8261719,32.0644531,6.1005859,46.4511719c2.7324219,30.8671875-1.6972656,57.3847656-36.8818359,84.0576172  c-42.9873047-18.09375-56.6767578-42.7197266-63.7861328-70.1650391  c-3.5527344-13.7177734-5.4619141-28.1386719-8.5634766-42.8007813c2.4892578-0.4228516,28.3574219-4.8837891,53.5839844-9.1601563  C313.083252,147.2937012,336.5734863,143.3806152,338.5539551,142.9909668z M265.7893066,113.2116699  c5.2041016-16.6816406,12.9287109-22.4707031,37.296875-22.3964844c17.40625,21.78125-1.8916016,42.2412109,2.03125,54.65625  c-3.21875,0.5595703-6.8085938,1.1679688-10.15625,1.75c-1.5751953-0.3193359-3.2900391-1.0302734-4.5488281-1.6630859  c-4.5419922-2.2871094-7.671875-5.5146484-8.0410156-6.4316406c-0.8818359-8.2070313,11.8515625-24.7060547-10.1484375-23.8935547  C265.6623535,115.4753418,265.2824707,114.9763184,265.7893066,113.2116699z M262.8244629,126.0270996  c1.4599609-2.6015625,3.8427734-6.3388672,5.1064453-8.2988281c0.1210938-0.0068359,0.2324219-0.0126953,0.3486328-0.0214844  c0.2568359,0.1953125,0.6142578,0.4208984,1.1025391,0.6376953c-0.3339844,0.8515625-0.5078125,2.53125,0.6689453,3.09375  c1.1933594,0.5693359,2.3486328-0.0009766,3.078125-0.7568359c1.2441406,0.1904297,2.4414063,0.4697266,2.3789063,0.2431641  c-0.0859375-0.3173828-1.828125-2.03125-2.7265625-2.5849609c-0.4589844-0.2832031-1.1835938-0.8271484-1.4765625-1.0244141  c14.25-0.40625,12.90625,4.03125,10.875,12.125c-1.03125,4.109375-2.8330078,8.7021484-1.15625,11.34375  c-5.2666016,2.0927734-9.7480469,3.1796875-12.7509766,3.4404297c-3.703125,0.3222656-5.7158203-1.8144531-3.7802734-5.7412109  c0.4853516-0.9853516-0.0205078-1.7431641-0.2236328-2.4189453c-0.2382813-0.7939453,0.0634766-0.9091797,0.3994141-0.9003906  c2.8583984,0.0771484,3.8125,0.3554688,6.53125,1.8876953c1.2402344,0.7001953,2.0449219,0.6357422,2.5585938,0.1855469  c0.25-0.21875,0.3662109-1.2060547-0.3007813-2.3486328c-0.890625-1.5263672-2.0986328-3.0849609-3.8798828-5.2158203  c-0.6621094-0.7919922-1.4902344-1.0898438-1.8662109-1.1318359c-0.5244141-0.0576172-3.96875,0.0351563-4.7890625-0.1708984  C262.2619629,128.204834,262.161377,127.2106934,262.8244629,126.0270996z M271.1379395,119.8825684  c0-0.4355469,0.2832031-0.7871094,0.6337891-0.7871094c0.3515625,0,0.6328125,0.3515625,0.6328125,0.7871094  c0,0.4365234-0.28125,0.7890625-0.6328125,0.7890625C271.4211426,120.6716309,271.1379395,120.3190918,271.1379395,119.8825684z   M262.9572754,132.3981934c0.3515625-1.7177734,0.5869141-1.8505859,0.8505859-2.0439453s3.8681641-0.015625,4.4824219,0.0429688  c0.3427734,0.0273438,0.6650391,0.3808594,0.9814453,0.7070313c1.4326172,1.4863281,2.8427734,3.2988281,3.3662109,4.4003906  c0.4160156,0.8740234,0.0195313,0.9931641-0.5029297,0.7744141c-0.9023438-0.3779297-3.0830078-1.7666016-4.2529297-2.1103516  c-0.4755859-0.1376953-2.0068359-0.2880859-3.5136719-0.3203125  C262.8596191,133.8161621,262.685791,133.736084,262.9572754,132.3981934z M264.0686035,145.4138184  c1.1777344,0.6357422,2.8730469,0.9833984,5.0683594,0.7021484c4.4355469-0.5673828,11.1289063-2.7382813,13.3398438-3.7851563  c2.59375,2.59375,6.734375,4.984375,8.4433594,5.6611328c-2.8505859,0.4951172-12.7988281,2.203125-23.7412109,4.0800781  c-1.0136719-1.40625-3.1308594-4.2089844-5.5263672-6.5107422  C262.5090332,145.4763184,263.3342285,145.4226074,264.0686035,145.4138184z M257.7053223,146.1550293  c0.4375-0.0888672,0.8876953-0.1708984,1.34375-0.2460938c1.5332031,1.2753906,3.1220703,3.0205078,4.3896484,4.5742188  c0.5917969,0.7236328,1.1123047,1.3984375,1.5380859,1.9667969c-3.7353516,0.6396484-7.5351563,1.2919922-11.1689453,1.9140625  c0.3027344-0.9238281,0.7753906-2.1855469,1.3496094-3.4296875  C255.9074707,149.2497559,256.8371582,147.4753418,257.7053223,146.1550293z M250.9250488,148.282959  c0.9550781-0.3896484,2.5224609-0.9589844,4.0224609-1.4199219c-0.5751953,1.0449219-1.1240234,2.1630859-1.6152344,3.2539063  c-0.8095703,1.8525391-1.4433594,3.4482422-1.7236328,4.6240234c-1.5537109,0.2666016-3.0644531,0.5253906-4.5166016,0.7744141  c0.4326172-1.4609375,1.3330078-3.2548828,2.2392578-4.7539063  C249.9162598,149.7800293,250.489502,148.9147949,250.9250488,148.282959z M222.9621582,134.8776855  c9.8339844,2.6474609,21.1367188,9.4853516,25.9726563,12.7783203c-1.3339844,1.9677734-3.4160156,5.3544922-3.9785156,8.2246094  c-7.4111328,1.2695313-12.7919922,2.1914063-13.1181641,2.2451172c0.5117188,2.46875,1.2373047,5.9658203,1.8193359,8.828125  c-3.1689453-1.4355469-9.2451172-3.3056641-15.5712891-7.4824219c-1.1689453-0.7949219-6.1933594-5.9169922-8.875-8.4433594  c0.5390625-3.375,3.9013672-7.5673828,7.4101563-10.8476563c1.9160156-1.8183594,3.8427734-3.390625,5.2880859-4.5058594  C222.3010254,135.3718262,222.6525879,135.1071777,222.9621582,134.8776855z M251.2873535,66.7790527  c0,0,141.0419922,2.8105469,143.8740234,3.2822266c3.2988281,0.5498047,14.6757813,4.2910156,14.6757813,4.2910156  s-11.5332031,3.9638672-14.34375,4.2939453c-2.6738281,0.3134766-144.2060547,4.4404297-144.2060547,4.4404297V66.7790527z   M242.0490723,67.1540527l4.0126953-18.7050781l3.3837891,0.0488281l0.0244141,52.3720703l-3.9384766-0.0244141  l-3.6669922-19.421875c6.5957031-7.765625,4.0478516-9.6386719-0.2158203-11.3271484  C241.7092285,69.3513184,242.0129395,67.822998,242.0490723,67.1540527z M234.4318848,59.673584  c0.7285156-0.2685547,2.0292969-0.2460938,2.6181641,0c1.9794922,0.8291016,2.1367188,7.0332031,2.0185547,9.4003906  c-1.8261719-1.1025391-4.6699219-3.7587891-5.2636719-3.8212891  C233.4865723,63.5368652,232.3195801,60.4538574,234.4318848,59.673584z M234.2941895,67.3884277  c1.09375,0.0097656,2.1972656,2.7246094,8.2373047,5.2421875c1.8066406,0.7519531,1.3662109,3.4160156-2.6435547,8.1728516  c-0.7666016,0.9082031-3.7392578,6.5429688-9.8642578,6.3554688c-8.9775391-0.2753906-6.0429688-6.5175781-3.7353516-7.7285156  c5.0244141-2.6386719,6.9443359-0.6513672,7.7402344-0.0722656c0.5332031,0.3496094,1.0371094,0.4833984,1.4541016,0.6259766  c1.0625,0.3623047,2.0166016,0.1757813,0.9560547-0.3759766c-1.1816406-0.6181641-1.4443359-1.6806641,0.1533203-2.1328125  c0.9394531-0.2646484,1.7900391-0.5371094,2.25-0.7910156c0.5927734-0.3291016,1.0136719-0.9326172,0.5966797-1.265625  s-2.1826172,0.1308594-2.7314453-0.2910156C230.9787598,70.7302246,232.9240723,67.3747559,234.2941895,67.3884277z   M226.0090332,62.1657715c0.4394531-1.8837891,4.4257813-2.0849609,5.0146484-0.0068359  c0.5654297,1.40625,1.0341797,3.3378906,1.1582031,4.1269531c-1.0996094,1.4140625-1.4462891,4.7636719,1.0332031,7.6933594  c1.1298828,1.6630859-0.0722656,2.0927734-1.3173828,2.1357422c-0.7685547,0.0263672-1.8105469-0.8554688-2.734375-2.2519531  C227.1584473,70.8317871,225.1418457,65.8806152,226.0090332,62.1657715z M223.9436035,63.2644043  c1.2294922,8.9638672,3.3173828,10.7470703,4.5800781,12.4296875c1.3994141,1.4082031-2.6025391,2.0517578-4.1875,0.9023438  c-2.1582031-1.5673828-4.5625-6.828125-4.5625-9.9375C219.7736816,63.095459,223.0744629,62.3239746,223.9436035,63.2644043z   M217.7492676,66.7858887c1.6123047,7.3808594,4.7509766,10.265625,4.7509766,10.265625s2.1318359,1.8388672-1.2724609,2.2050781  c-1.078125,0.1162109-4.2636719-0.7763672-7.1259766-6.7021484  C211.9914551,68.1862793,215.8830566,65.9372559,217.7492676,66.7858887z M201.8127441,77.2839355  c0.1611328-0.7646484,0.3769531-1.9414063,0.3769531-2.7587891c0-0.8955078-0.1123047-1.7607422-0.3056641-2.59375  l0.5771484,0.0019531l9.3125,0.0380859c0.2744141,1.2773438,1.7646484,3.84375,2.6875,5.25L201.8127441,77.2839355z   M214.6281738,86.8669434c0,0,1.9208984-0.1660156,3.1738281-0.3056641  c3.1660156-0.3544922-1.7617188-0.4980469-2.8408203-1.0273438c-1.4179688-0.6972656-2.8017578-2.2382813-2.5380859-5.265625  l5.2753906-0.0166016c1.1943359,0.6464844,2.6083984,1.0048828,3.5546875,1.2402344  c-0.5830078,3.5830078,1.7539063,7.6132813,9.0136719,7.5498047c0.2841797-0.0029297,0.9804688-0.0058594,1.25-0.0244141  c-2.1142578,2.71875-7.4052734,11.5810547-6.75,23.4521484c-2.4619141,0.2402344-4.9970703,0.3662109-7.4941406,0.3662109  c-2.4101563,0-4.7773438-0.1064453-6.9882813-0.3046875c-3.7265625-0.3105469-8.8964844-2.0078125-10.6123047-2.9501953  C210.0070801,92.5827637,214.6281738,86.8669434,214.6281738,86.8669434z M200.4787598,112.9040527l0.3271484-0.6445313  c2.546875,0.9785156,6.1777344,1.9667969,9.3007813,2.2626953c2.2753906,0.2041016,4.6982422,0.3125,7.1660156,0.3125  c1.4824219,0,2.9794922-0.0429688,4.4697266-0.1240234l-0.0341797,0.1806641  c-0.5488281,4.3320313-2.5810547,10.0136719-3.3359375,12.0224609c-6.6376953,3.7460938-12.1777344,4.6933594-16.109375,4.6953125  c-2.0898438,0-3.7255859-0.2666016-4.8300781-0.5283203c-0.5537109-0.1318359-0.9716797-0.2617188-1.2451172-0.3554688  c-0.0703125-0.0244141-0.1289063-0.0449219-0.1777344-0.0625  C196.1047363,121.2126465,198.3244629,117.4431152,200.4787598,112.9040527z M195.4943848,132.6013184  c0.9697266,0.3388672,3.3212891,1.0078125,6.7685547,1.0078125h0.0234375c4.2138672,0,10.0449219-1.0273438,16.8818359-4.8476563  c1.171875,1.4365234,2.0332031,3.3164063,2.5244141,4.5664063c-1.5078125,1.1230469-3.9716797,3.0527344-6.4482422,5.4023438  c-3.3085938,3.1806641-6.7255859,7.0371094-7.7802734,11.0097656c-4.2626953-3.7695313-8.3623047-6.7421875-13.3154297-10.4560547  C194.0324707,138.2595215,194.904541,134.7878418,195.4943848,132.6013184z M185.3361816,137.4089355  c18.4375,9.875,38.3720703,26.5185547,47.3125,57.5c1.4414063,4.9931641,2.7519531,12.4472656,3.5703125,21.2666016  c-1.0292969,0.4042969-1.5429688,0.8066406-2.046875,1.3857422c-0.7636719,0.8779297-1.2607422,2.6650391-0.8632813,4.1347656  c0.2626953,0.9707031,0.8007813,1.4130859,0.8007813,1.4130859s-2.3359375,0.8623047-2.3515625,3.5605469  c-0.0097656,1.75,0.6083984,2.7373047,1.9931641,3.53125c-0.6845703,0.3896484-1.2666016,1.6386719-1.1796875,2.6484375  c0.0585938,0.7324219,0.3115234,1.4873047,0.7148438,1.9746094c-1.9628906,0.0507813-4.0185547,0.1054688-6.1552734,0.1630859  c-0.1054688-1.34375-0.1455078-2.5683594-0.1386719-3.5615234c0-0.6777344,0.0136719-1.2490234,0.0302734-1.6875  c0.0498047-1.3740234,0.0761719-2.7724609,0.0761719-4.1914063c-0.0058594-15.8964844-3.2011719-34.3007813-10.0830078-47.3837891  c-9.7822266-18.5576172-26.6689453-33.5097656-45.4023438-39.6738281c1.7089844-1.2373047,3.3359375-2.7060547,4.6464844-4.6210938  C179.170166,134.5964355,182.036377,135.6413574,185.3361816,137.4089355z M176.4846191,122.5749512  c0.7265625,14.2714844-9.4619141,15.4619141-13.6484375,19.3964844  C163.5031738,133.1794434,171.3342285,126.3728027,176.4846191,122.5749512z M169.2111816,122.4089355  c0.1240234,0.9902344,0.0791016,2.4853516-0.2109375,3.9560547c-0.6972656,0.6777344-1.6806641,1.6494141-2.3515625,2.4150391  c-1.4052734-0.1767578-2.7871094-0.2988281-4.1445313-0.3740234  C164.0861816,125.0964355,167.6184082,122.9177246,169.2111816,122.4089355z M141.7736816,135.5964355  c4.625-3.5,13.1210938-4.9580078,22.6875-4.0625c-0.8613281,1.3007813-2.0507813,3.6210938-2.6621094,5.1386719  c-7.5361328-0.9023438-14.5742188,0.5380859-20.2265625,4.2587891  C141.489502,140.0144043,141.4992676,135.8952637,141.7736816,135.5964355z M121.8361816,165.7419434  c6.34375-8.4160156,14.0664063-17.0097656,19.4003906-21.5839844c0.5097656-0.4365234,1.0029297-0.828125,1.4833984-1.1875  c0.1904297,0.1113281,0.9228516,0.5507813,2.0507813,1.3056641c3.3212891,2.2089844,9.90625,7.078125,14.9853516,13.5791016  c-0.2402344,0.6064453-0.3818359,1.2880859-0.3847656,2.0537109c0.0029297,0.7636719,0.1445313,1.4423828,0.3828125,2.0478516  c-0.8476563,1.3662109-1.7167969,2.7402344-2.6181641,4.1191406c-6.8076172,10.4785156-14.8632813,21.21875-20.4472656,27.8730469  c-5.5664063-2.8486328-10.7988281-6.3242188-14.9121094-9.3486328c-4.4609375-3.2802734-7.5908203-5.9941406-8.4931641-6.7900391  C115.8771973,173.8942871,118.739502,169.8513184,121.8361816,165.7419434z M112.177002,179.501709  c2.2333984,1.9521484,11.53125,9.8515625,22.5019531,15.6650391c-1.9863281,0.5966797-3.703125,1.9326172-4.5117188,4.0068359  c-3.4755859-1.9912109-6.7832031-4.1796875-9.6865234-6.2832031c-3.3691406-2.4394531-6.2148438-4.7470703-8.2167969-6.4433594  c-1.4414063-1.2216797-2.4267578-2.1113281-2.8710938-2.5185547  C110.2756348,182.4772949,111.2062988,180.9987793,112.177002,179.501709z M129.9230957,204.1286621  c-1.5458984,0.5644531-4.3056641,2.0380859-6.3056641,3.4833984l-1.4199219-2.0136719  c2.6904297-1.0634766,6.0136719-1.6269531,7.6699219-1.6894531L129.9230957,204.1286621z M108.5861816,216.9089355  c-2.9580078,6.375-10.2363281-5.7919922-10.0332031-7.5898438c0.6708984-5.9570313,4.2294922-14.2255859,9.7939453-23.6416016  c2.2929688,2.0683594,11.0087891,9.7226563,21.3564453,15.5498047c-0.0175781,0.2226563-0.0341797,0.4462891-0.0341797,0.6806641  c0,0.0878906,0.0097656,0.1679688,0.0126953,0.2539063c-1.8486328,0.0849609-5.3886719,0.7226563-7.0117188,1.1630859  C112.3781738,206.1169434,110.0715332,213.7077637,108.5861816,216.9089355z M130.670166,211.8669434  c-1.2490234-0.5029297-3.0498047-1.0283203-3.984375-0.8974609c-1.2666016,0.1787109,6.7431641,4.4960938,2.6103516,8.2021484  c-1.6533203,1.4824219-11.7177734,2.6005859-11.7929688-0.4296875c-0.0966797-3.9287109,7.1298828-9.7216797,13.0791016-13.2236328  c0.9511719,1.6572266,2.5517578,2.7246094,4.34375,3.2041016  C133.3361816,210.0437012,131.1516113,211.6472168,130.670166,211.8669434z M131.6691895,201.907959  c0.0136719-6.9003906,11-6.9013672,11.0009766,0C142.654541,208.8112793,131.6828613,208.8122559,131.6691895,201.907959z   M124.7092285,258.0778809c1.1640625-7.0039063,4.8388672-16.8564453,11.296875-26.0908203  c-0.5380859,5.8085938-1.1943359,11.4003906-1.4550781,17.0732422c25.9013672,4.6064453,70.3505859-3.9824219,91.3173828-8.6582031  c0.9160156,4.4628906,2.7744141,9.2880859,6.5244141,12.6865234c-2.4619141,3.2304688-5.2216797,6.4042969-7.4941406,9.5390625  c-1.2265625,1.6904297-3.1591797,4.515625-4.5253906,7.6445313c-9.9785156,3.1962891-37.8583984,11.2236328-66.4970703,12.6240234  c-3.0634766,0.1474609-6.1582031,0.2304688-9.2685547,0.2275391c-11.7148438,0.0029297-23.6582031-1.1738281-34.9902344-4.1347656  C112.9680176,268.3591309,118.8010254,262.3747559,124.7092285,258.0778809z M109.0539551,280.907959  c11.5595703,3.0263672,23.6894531,4.2177734,35.5537109,4.2177734c3.1464844,0,6.2724609-0.0830078,9.3652344-0.2324219  c29.9375-1.4677734,56.5498047-9.4003906,65.5410156-12.3388672c-0.6640625,2.1054688-0.9628906,4.2568359-0.5214844,6.2294922  c-0.71875,0.9296875-1.7763672,2.5458984-2.8417969,4.2451172c-10.8261719,3.3681641-35.2304688,10.0449219-62.2753906,11.3662109  c-3.0634766,0.1474609-6.1572266,0.2304688-9.2685547,0.2304688c-12.4980469,0-25.2675781-1.3115234-37.2666016-4.7333984  C107.7355957,286.588623,108.317627,283.6071777,109.0539551,280.907959z M33.2756348,347.7106934  c1.0927734-7.4013672,1.4892578-14.5703125,1.7509766-15.3320313c2.5898438-7.5527344,13.4765625-11.4697266,21.7519531-44.2871094  c0.4414063-1.75,0.734375-2.9277344,1.5126953-4.0888672c1.6142578-2.4091797,4.2753906-4.0908203,7.3564453-6.0878906  c4.734375-3.0683594,7.8554688-3.5078125,10.6943359-2.2939453c2.1064453,0.9003906,4.6152344,2.2373047,8.5488281,3.7958984  c4.4267578,1.7539063,12.2285156,4.1738281,19.9785156,6.1738281c-0.6591797,4.5205078-1.0527344,11.0371094-1.1552734,15.03125  c-2.0605469-1.1542969-6.2675781-3.7822266-7.5439453-4.2128906c-3.4589844-1.1679688-7.9228516-0.234375-9.0898438,0.1826172  c-2.984375,1.0664063-6.3222656,3.3515625-8.7597656,6.4296875c-0.6738281-0.25-2.59375-0.8876953-3.9716797-1.9296875  c-0.7744141-0.5869141,3.1298828-3.3886719,3.6425781-3.9326172c0.1738281-0.1845703-1.640625,0.1123047-3.6660156,0.8945313  c-1.5546875,0.5996094-3.2646484,2.2509766-4.3671875,3.5224609c-5.0732422,5.8466797-12.3007813,20.7802734-13.5263672,25.9257813  c-0.8457031,2.8876953-0.8740234,5.6679688-0.9287109,7.0742188c-2.4140625,2.8261719-5.1298828,6.5820313-8.0830078,9.25  c-0.6855469,0.0839844-2.5996094,0.1923828-3.3535156-0.0224609c-0.7509766-0.2128906-1.4804688-0.7382813-1.7617188-0.6914063  c-0.7363281,0.2568359,1.125,1.3125,1.84375,1.5625c0.3320313,0.1152344,1.8847656,0.2558594,2.3037109,0.3203125  c-0.1103516,0.09375-0.4814453,0.3554688-0.5927734,0.4521484c-0.9648438,0.8232422-1.3398438,3.1875-1.4179688,6.0058594  c-1.2148438-0.0126953-1.9169922,0.2734375-2.7109375,0.6074219c-0.6318359,0.2666016-2.1582031,0.9746094,0.1113281,0.8876953  c0.7490234-0.0292969,1.6162109-0.1220703,2.4970703,0.0361328c-0.2197266,3.3916016,0.21875,6.0449219,0.5390625,8.3378906  c-6.515625,4.796875-12.7226563,5.9384766-14.2578125,6.1269531  C29.4729004,364.1901855,31.9533691,356.6774902,33.2756348,347.7106934z M76.3156738,305.6335449  c-4.6455078,7.0253906-10.8662109,16.6943359-17.7294922,25.7753906c0.2880859-1.8261719,1.0449219-3.6748047,1.3935547-5.0048828  c1.0693359-4.0830078,6.1777344-14.0175781,9.4287109-18.7099609c0.7734375-1.1132813,2.9794922-4.2275391,3.5400391-3.7832031  C73.5471191,304.3093262,74.7053223,304.947998,76.3156738,305.6335449z M42.2111816,385.4401855  c-3.9423828-1.6269531-9.625-8.90625-11.25-15.9892578c1.0664063-0.21875,3.7392578-0.9199219,5.7744141-1.7246094  c2.6171875-1.0341797,5.7314453-2.6201172,8.5615234-4.9267578c0.4140625,1.859375,4.6044922,12.5273438,4.8828125,14.0625  C48.4299316,379.7839355,46.1174316,382.4401855,42.2111816,385.4401855z M69.9768066,367.3562012  c0.2314453-0.0253906,1.21875-0.2597656,1.578125-0.3535156c3.265625,1.75,14.71875,15.34375,5.625,34.078125  c-7.6875-1.3125-15.1767578-4.296875-19.3388672-10.0908203c3.5878906-1.7158203,7.0185547-4.6201172,8.7392578-7.3173828  C70.3742676,377.7233887,70.388916,370.5612793,69.9768066,367.3562012z M164.2121582,354.3425293  c3.5791016-8.5634766,3.5146484-8.7119141,6.8359375-11.4257813c1.7441406-1.4257813,0.1513672-2.1464844-4.5087891,1.1328125  c-2.9462891,2.0732422-7.0722656,17.7177734-10.3554688,17.2304688  c-2.6748047-0.3964844-11.4384766-7.4013672-28.1435547-11.3964844  c-9.1171875-2.1796875-27.6494141-19.8193359-33.5947266-23.4863281c-0.7939453-0.4892578-3.3378906-1.6337891-7.0361328,0.3964844  c-3.1503906,1.7294922-13.921875,12.9462891-18.9707031,20.6269531c-0.8242188,1.2539063-2.0771484,2.7265625-1.6113281,5.0507813  c0.4824219,2.4101563,1.5361328,5.3867188,1.6650391,6.4453125c0.1435547,1.1835938,0,3.8144531-6.0507813,4.1982422  c-4.1679688,0.2636719-4.5195313,0.7578125-0.7890625,1.4091797c1.9257813,0.3359375,3.8613281-0.3349609,3.9931641,2.0732422  c0.0830078,1.5087891-4.9492188,7.5556641-2.6376953,5.8583984c0.7539063-0.5537109,2.3964844-3.3349609,5.0830078-4.5869141  c0.5097656,4.0859375,0.2255859,16.2509766-11.5244141,21.1259766c-1.4238281-2.1162109-2.1269531-7.6347656-2.6884766-9.7529297  c-1.6748047-6.3173828-3.6865234-10.984375-5.9326172-17.9960938c-1.1708984-3.6572266-0.5195313-13.5712891,0.390625-14.5039063  c27.6669922-28.3330078,28.1728516-41.9648438,39-47c2.7832031-1.2939453,6.8964844-1.0175781,8.5839844-0.25  c1.5380859,0.7001953,5.2197266,3.2871094,7.7197266,4.5683594c19.4550781,9.9658203,38.171875,8.6308594,42.0175781,11.3212891  c4.3408203,3.0341797,6.3974609,7.0585938,7.6689453,8.3115234c3.5371094,3.4902344-3.5908203-9.5869141-6.3662109-10.8417969  c-5.9570313-2.6923828-22.2900391-2.4423828-40.2070313-10.6923828c-0.0566406-3.71875,0.0800781-7.1201172,0.3730469-10.2548828  c12.1318359,3.4150391,24.9580078,4.7216797,37.4804688,4.7216797c3.1464844,0,6.2724609-0.0830078,9.3662109-0.2324219  c25.6181641-1.2568359,48.7958984-7.2451172,60.5888672-10.7880859c-1.2988281,2.1386719-2.3261719,3.8964844-2.3261719,3.8964844  c-2.5429688,4.9628906-4.4179688,10.9658203-6.2236328,17.5869141c-3.1884766,0.3876953-10.1259766,2.1542969-13.7167969,6.1904297  c-1.4941406,6.1337891,0.5664063,12.1464844,1.390625,14.4111328l-21.9423828,29.6259766  C170.1535645,356.7058105,166.0949707,354.7390137,164.2121582,354.3425293z M191.2131348,334.4147949l-19.2607422,33.8310547  c-0.1152344-0.1298828-0.9257813-1.0136719-1.0488281-1.1347656c-0.7167969-0.7099609-1.5585938-1.2910156-2.4902344-1.7089844  L191.2131348,334.4147949z M150.795166,379.2165527c2.4384766-0.6767578,5.4482422-0.9794922,5.9707031-1.0351563  c-0.6503906,0.7773438-2.8857422,4.0009766-4.8203125,7.4326172c-0.2773438,0.4902344-0.5488281,0.984375-0.8134766,1.4736328  c-0.7451172-1.2714844-1.2763672-2.6640625-1.5595703-4.1113281c-0.0410156-0.2099609-0.3095703-2.4208984-0.2841797-3.3056641  C149.7805176,379.5114746,150.2834473,379.3581543,150.795166,379.2165527z M129.880127,395.8884277  c1.2705078-2.9414063,2.9707031-5.4140625,4.9169922-7.4960938c0.1611328,2.2460938,0.8154297,4.4482422,1.9169922,6.4082031  C134.4475098,395.0856934,132.1096191,395.4421387,129.880127,395.8884277z M138.8977051,394.5456543  c-0.9257813-1.4082031-1.5654297-2.9931641-1.8886719-4.6455078c-0.21875-1.1191406-0.3203125-2.2958984-0.2177734-3.4375  c1.3486328-1.1816406,2.7763672-2.2070313,4.2333984-3.1015625c0,0.0517578-0.0029297,0.1054688-0.0029297,0.1572266  c0,3.7207031,1.0693359,7.4208984,3.0654297,10.5546875C142.5246582,394.189209,140.7600098,394.3435059,138.8977051,394.5456543z   M147.7736816,393.7839355l-1.375,0.1308594c-0.2988281-0.40625-0.5908203-0.8183594-0.8525391-1.25  c-1.0615234-1.7509766-1.7929688-3.6933594-2.1855469-5.7021484c-0.2880859-1.4785156-0.4208984-3.0185547-0.2978516-4.5234375  c0.0087891-0.1054688,0.0078125-0.1787109,0.0009766-0.2382813c0.125-0.0654297,0.25-0.1347656,0.375-0.1982422  c0.4648438-0.2373047,1.9521484-0.9287109,3.8769531-1.6464844c0,0.0039063,0,0.0078125,0,0.0117188  c0.0029297,3.1113281,0.9570313,6.2041016,2.7470703,8.75C148.7229004,391.720459,147.7736816,393.7839355,147.7736816,393.7839355z   M165.1330566,399.9714355c0,0-9.859375-2.3037109-15.0673828-3.4609375  c2.015625-6.3496094,7.1914063-14.1005859,9.4960938-17.0751953c1.4648438,1.2460938,3.359375,2,5.4345703,2  c0.4501953,0,1.1835938-0.0888672,1.8867188-0.1982422C167.130127,389.9528809,165.1330566,399.9714355,165.1330566,399.9714355z   M165.0012207,378.642334c-3.0908203,0-5.5947266-2.5039063-5.5947266-5.5898438  c0-3.0849609,2.5039063-5.5898438,5.5947266-5.5898438c3.0888672,0,5.5927734,2.5048828,5.5927734,5.5898438  C170.5939941,376.1384277,168.0900879,378.642334,165.0012207,378.642334z M184.0031738,400.9089355  c-4.1083984-0.3359375-11.9003906-2.6230469-15.2792969-4.2792969c0.1445313-1.1347656,0.4345703-3.4082031,0.5595703-4.6132813  l14.6259766-4.1123047C183.7922363,392.2995605,184.2131348,398.8269043,184.0031738,400.9089355z M169.5158691,389.6228027  c0.0664063-0.7441406,0.1279297-1.4853516,0.1796875-2.2158203l31.5410156-5.9472656L169.5158691,389.6228027z   M299.8039551,432.2683105c5.03125,18.1083984,7.03125,38.2333984-3.1396484,54.40625  c-18.8896484-28.6699219-28.328125-70.953125-28.328125-70.953125s-8.0351563-0.0380859-8.4941406-0.0654297  c6.6855469,32.7519531,25.6738281,64.8945313,28.8632813,79.2421875  c-30.8583984-6.1845703-46.9677734-46.2939453-51.7666016-68.546875c-0.9150391-4.2441406-1.5488281-7.6376953-1.6650391-10.2236328  c0-0.0732422-6.9609375,0.0683594-8.1875,0.1142578c7.7148438,40.7255859,24.5,60.6669922,28.5,75.1669922  c-44.4160156-8-60.625-80.625-63.2666016-105.9130859l22.9570313-6.4160156  c0.3378906,1.1894531,2.4853516,8.0292969,8.6738281,13.7509766c1.8808594-6.4326172,1.0117188-11.1289063,1.0117188-11.1289063  s7.4511719-2.6025391,12.8027344-8.3115234c-7.2324219-2.5302734-15.0703125-1.7109375-15.0703125-1.7109375  s-2.7236328-5.4677734-6.6289063-9.2978516c-2.2226563,7.0664063-1.2685547,14.2324219-1.1259766,15.1816406l-23.0722656,3.7988281  c-0.109375-0.484375-0.15625-1.453125-0.2041016-1.9423828c5.0498047-5.7861328,12.5791016-13.8066406,13.2978516-14.1669922  c17.0419922-5.3027344,18.3720703-20.9296875,17.5996094-31.9541016c2.2646484-4.2714844,6.0800781-8.6835938,9.0556641-12.2978516  c1.2128906-1.4736328,4.9785156-4.3681641,8.8681641-7.0527344c4.1269531,0.7421875,9.1806641,1.0888672,13.3447266,0.9248047  l13.3896484,73.0771484l0.0146484,0.078125l0.0185547,0.0791016c0.15625,0.6513672,3.9140625,16.0673828,12.1132813,25.2509766  l2.859375,3.2021484l2.0244141-3.7861328c2.3076172-4.3173828,3.2001953-10.1933594,3.4638672-15.5175781  C289.7150879,402.4187012,296.9650879,421.3679199,299.8039551,432.2683105z M222.9123535,388.7106934  c-3.0273438-2.9570313-5.0732422-9.3896484-5.34375-10.2734375l4.8378906-1.3623047l-0.1933594-0.6982422l-4.9501953,0.8085938  c-0.0673828-0.3632813-1.0976563-5.9599609-0.2568359-10.0830078c1.1552734,0.6503906,4.53125,6.8964844,4.53125,6.8964844  s7.5292969-1.2255859,12.2021484,0.3554688c-4.0517578,3.6845703-11.2363281,5.8945313-11.2363281,5.8945313  S223.2023926,383.9411621,222.9123535,388.7106934z M295.2111816,392.7839355  c-0.9941406,0.0371094-2.7001953-0.0722656-3.9160156,0.0830078c-0.6738281,0.4736328-1.7871094,1.28125-1.7871094,1.28125  s-0.9716797-1.3564453-1.7314453-2.9570313c-0.0234375-0.9316406-0.0605469-1.8017578-0.1035156-2.5957031  c2.5664063,0.1425781,5.265625-0.0605469,7.7255859-0.7910156  C295.3518066,390.088623,295.2336426,391.8874512,295.2111816,392.7839355z M314.5861816,504.7214355  c10.5908203-1.2480469,14.25-4.0625,23.0966797-17.0673828c11.9150391-17.5136719,15.7226563-23.359375,13.4707031-29.3173828  c-1.0820313-2.8652344-5.0195313-7.5380859-8.2871094-11.4921875c13.5908203,6.1884766,26.8339844,11.6367188,26.5117188,18.0224609  c-0.0449219,0.8642578-0.4589844,2.3369141-0.7285156,3.4755859c-7.2753906,9.6796875-19.3222656,23.0693359-27.1054688,39.4003906  c-3.3203125,0.6074219-5.9257813,0.671875-8.5410156,1.4707031c-2.4121094-0.6367188-3.5615234-1.8320313-3.5615234-1.8320313  s-1.2529297-0.9667969-0.578125,0.7714844c0.3173828,0.8095703,0.9892578,1.4453125,1.6181641,1.9003906  c-5.1972656,1.8974609-8.6035156,4.1054688-11.1875,7.6884766c-4.6660156-0.4580078-12.7910156-2.1669922-17.125-7.9169922  C305.3000488,507.182373,308.9387207,505.3864746,314.5861816,504.7214355z M367.130127,475.4187012  c-3.0996094,9.015625-8.9453125,22.0449219-15.3544922,28.8066406c-2.1855469,2.1728516-4.0595703,2.5820313-6.4794922,2.8867188  C351.4934082,494.2946777,362.7629395,480.9978027,367.130127,475.4187012z M294.8361816,526.1999512  c-0.4443359-1.984375,1.0839844-9.3740234,5.6669922-14.7490234c5.6660156,6.4589844,14.3242188,7.4189453,18.0185547,7.5976563  c-1.9716797,2.8349609-3.6494141,6.4648438-4.7685547,10.6523438  C308.2111816,531.6179199,295.333252,528.4108887,294.8361816,526.1999512z M334.0891113,538.1599121  c-2.3876953,0.3173828-18.9121094-0.7978516-18.7109375-3.5429688c0.375-5.125,2.1660156-10.9990234,6.7080078-15.9150391  c9.5458984,6.9599609,22.5263672,9.7753906,29.2060547,8.1289063  C350.3195801,530.8464355,347.279541,536.407959,334.0891113,538.1599121z M369.4611816,410.4089355  c-1.2373047,1.4619141-2.7402344,4.5693359,1.0625,7.6875c5.2519531,4.3085938,28.0625,20.8417969,29.7480469,22.0976563  c0.9111328,0.6757813,1.4873047,2.6855469,0.7705078,4.0273438c-3.5332031,6.625-10.2578125,16.6064453-16.3535156,29.2587891  c-5.1308594,10.6455078-9.9472656,23.1796875-11.9160156,37.1962891c-0.3554688,2.5322266,0.1152344,6.4873047-0.6601563,7.7373047  c-1.7597656,2.8349609-13.6503906-1.0146484-18.5527344-5.1601563c-0.9892578-0.8349609-1.0625-0.3623047-0.7080078,0.0771484  c0.96875,1.203125,2.2470703,2.9609375,2.0703125,4.296875c-0.1123047,0.8515625-0.7861328,1.4658203-2.4082031,1.4023438  c-1.359375-0.0546875-3.4150391-1.1181641-4.1308594-1.4179688c-3.203125-1.34375-3.4570313-0.7177734-1.953125-0.140625  c1.953125,0.75,5.2666016,3.8388672,4.9892578,7.8964844c-11.0292969,1.7207031-24.8222656-5.7568359-27.5410156-8.4179688  c1.2226563-1.3037109,2.7832031-2.1220703,3.8652344-2.6484375c8.2519531-4.0205078,14.1640625-2.5117188,23.3818359-5.6777344  c4.1416016-1.4228516,18.9814453-25.1220703,20.4482422-42.734375c1.3496094-16.1845703-43.78125-18.8271484-62.9951172-51.9570313  c-19.5361328-14.625-2.7080078-35.1220703-16.2822266-47.6386719c-1.6572266-1.5292969-2.4833984-0.9912109-1.5302734,0.1689453  c3.8837891,4.7275391,4.6259766,13.0761719,4.6513672,19.2333984c-1.6552734,0.5439453-3.4111328,0.7919922-5.1435547,0.8701172  c-0.9101563,0.0410156-1.8232422,0.0205078-2.7353516-0.0263672c-0.1162109-1.4853516-0.2294922-2.4384766-0.25-2.6015625  l-6.0371094-48.3730469c0.2431641-3.6425781,0.6650391-7.6503906,1.2041016-11.6650391  c5.2324219,3.9873047,12.8632813,9.6230469,21.5517578,15.4716797c-1.4169922,3.7353516-3.0019531,7.6025391-4.7929688,11.6005859  c-1.7958984,4.0107422-1.2529297,8.9775391-0.2617188,13.2275391c3.9462891-1.0410156,8.3779297-4.4384766,10.2480469-8.6083984  c1.5488281-3.4521484,2.9433594-6.8095703,4.2246094-10.0859375c4.421875,2.7783203,8.9765625,5.4892578,13.5205078,7.9775391  c3.5791016,1.953125,7.0625,3.7529297,10.4609375,5.390625c-1.1289063,2.8505859-2.3505859,5.7695313-3.6923828,8.765625  c-1.7958984,4.0097656-1.2529297,8.9775391-0.2617188,13.2265625c3.9462891-1.0410156,8.3779297-4.4384766,10.2480469-8.6074219  c1.3652344-3.0449219,2.6113281-6.015625,3.7695313-8.9248047c10.9238281,4.3779297,20.9980469,6.78125,30.6347656,6.8027344  h0.0800781c5.984375,0.0009766,11.765625-0.9863281,17.2753906-2.9892578  c-0.6816406,3.4042969-1.4472656,5.8515625-1.5341797,6.1123047  C388.0754395,390.7194824,376.6242676,401.939209,369.4611816,410.4089355z M383.6047363,397.9558105  c8.4667969-11.0517578,14.0625-22.1738281,15.7314453-35.296875c5.9833984-6.3945313,15.5478516-14.2304688,25.2880859-20.2099609  c0.90625,7.4140625-6.2285156,16.1083984-14.890625,25.1894531c-7.6953125,8.0683594-16.5703125,16.4755859-20.1269531,26.4277344  c-2.4541016,6.8681641-2.3886719,16.6035156,2.3730469,23.2089844  C387.4748535,413.8190918,383.9064941,407.0056152,383.6047363,397.9558105z M420.5236816,411.9714355  c-2.625,1.6875-5.0537109,3.5078125-6.4980469,4.4257813c-4.5185547,2.8740234-8.6748047,4.2568359-12.7353516,4.1601563  c-3.9199219-4.6269531-4.5039063-8.7880859-3.3339844-11.6738281c1.1689453-2.8857422,4.6328125-5.7089844,9.15625-7.7109375  C404.3918457,407.7097168,409.0861816,415.2214355,420.5236816,411.9714355z M466.4953613,353.6706543  c-9.6523438,17.2353516-30.1611328,33.0703125-45.609375,38.4697266  c-11.9335938,4.171875-20.8046875,7.2597656-24.3896484,12.6992188c-2.4882813,3.7753906-3.0341797,10.7099609,2.2705078,15.4619141  c-1.7070313-0.3095703-3.3222656-0.8984375-4.8251953-1.7373047c-10.5634766-19.0751953,1.3603516-34.0712891,16.8251953-49.1767578  c14.328125-13.9951172,24.8710938-29.0126953,8.4716797-38.3740234c5.7392578-3.7714844,13.7041016-7.1904297,18.8583984-5.7685547  c10.6044922,2.9277344,10.9326172,17.7695313,4.1103516,26.1933594  c-5.3222656,6.5703125-14.0380859,13.8037109-27.6396484,20.0146484c0,0,16.2685547-2.0439453,31.7294922-13.3837891  c9.3916016-6.8886719,15.6806641-16.9853516,10.4824219-30.4384766c-0.4589844-1.0654297-1.3339844-2.7216797-1.234375-2.2568359  c1.0253906,5.6494141,5.4150391,18.5-8.7089844,29.6601563c-10.125,8-18.4443359,10.8134766-18.4443359,10.8134766  s0.6474609-0.2978516,1.5322266-0.7119141c3.8076172-2.1289063,11.3720703-8.3476563,14.9501953-13.3076172  c10.1455078-14.0722656,3.984375-30.0976563-10.2529297-29.4765625c-5.5078125,0.2392578-9.9443359,1.7089844-18.3115234,7.2626953  c-11.1972656,7.4316406-18.4755859,2.3769531-27.5449219-3.9589844c2.5820313,4.2607422,5.9980469,16.6074219,7.5292969,27.515625  c0.0703125,0.5019531,0.1240234,1.0126953,0.1650391,1.5283203c-5.7705078,3.0078125-11.6943359,4.4277344-18.3544922,4.4375  c-7.7871094,0.0234375-16.6650391-2.0449219-26.8164063-6.1298828c1.9912109-5.8554688,3.5800781-11.3652344,4.8330078-16.4638672  c3.3701172-13.7167969,5.2451172-25.4365234,6.0341797-32.5566406c0.2285156,0.1728516,0.3476563,0.2666016,0.3476563,0.2666016  c10.3535156,7.2109375,18.0195313,13.7685547,24.6542969,14.1523438c15.4257813,0.8945313,26.125-15.6708984,48.0683594-19.4433594  c14.9765625-2.5722656,25.5957031,1.4990234,30.6923828,9.0712891  C474.7893066,321.2145996,472.598877,342.7722168,466.4953613,353.6706543z M104.1486816,201.8776855  c-0.3310547,0.2109375-1.0585938,0.9443359-0.96875,1.34375c1.0986328-0.9726563,2.5712891-1.1865234,3.2509766-1.1679688  c0.4257813,0.0117188,0.9667969,0.4414063,0.9042969,1.2617188c-0.2871094-0.1660156-0.7880859-0.1923828-1.2197266-0.1054688  c-1.7441406,0.3505859-4.1865234,1.8408203-5.1386719,3.3183594c-0.6796875,1.0566406-0.9072266,2.9414063,0.2509766,3.7753906  c0.9619141,0.6933594,3.5214844,0.8222656,5.8447266-2.3769531c1.9736328-2.7207031,2.6269531-5.4892578,1.2851563-6.6191406  C107.4084473,200.5095215,105.9338379,200.7419434,104.1486816,201.8776855z M105.0012207,208.0446777  c-0.9248047,0.8623047-1.9589844,1.0585938-2.375,0.5888672c-0.7773438-0.8769531,0.1679688-2.4384766,1.5878906-3.3378906  c1.1816406-0.7490234,2.5732422-1.1474609,2.7636719-0.8037109  C107.4328613,205.314209,105.880127,207.2263184,105.0012207,208.0446777z M213.0275879,258.1970215  c-17.265625-8.7666016-43.5957031-2.9863281-57.8691406,4.0458984  C177.8234863,255.8864746,197.7883301,254.3444824,213.0275879,258.1970215z M346.2971191,411.0671387  c20.7597656-0.3603516,21.7353516-13.4033203,30.4541016-20.5253906  C369.779541,390.3337402,367.0568848,406.947998,346.2971191,411.0671387z M140.3059082,343.5661621  c-7.1494141-1.3916016-10.6826172-0.8349609-23.734375-10.203125c-2.609375-1.8740234-6.2919922-3.8154297-6.8193359-3.8896484  c-3.1640625-0.4365234,2.7353516,2.6650391,13.3847656,10.7216797c4.0585938,3.0712891,14.5634766,5.0087891,15.625,5.203125  C139.8234863,345.5905762,142.0510254,343.9060059,140.3059082,343.5661621z M384.9465332,444.048584  c6.6816406,1.3251953,6.4414063,3.8779297,7.6933594,4.8427734c0.4804688-0.3847656,0.0732422-4.8671875-5.8339844-6.6005859  c-3.1582031-5.3720703-8.5839844-9.6845703-13.40625-12.4824219  C373.3996582,431.0632324,383.7424316,438.9899902,384.9465332,444.048584z M132.1955566,167.2370605  c0.1757813-0.5253906,0.375-1.765625,0.7089844-1.8037109c0.2246094-0.0253906,1.4580078,1.3710938,3.9492188,1.3710938  s3.7021484-0.9609375,4.2402344-1.4580078c0.6816406-0.6289063,1.3095703-1.6992188,1.4326172-2.6269531  c0.7138672,0.1123047,2.1132813,0.0214844,2.796875-0.09375c1.8955078-0.3193359,2.7216797-1.3701172,2.1884766-1.2900391  c-0.0869141,0.0126953-0.3066406,0.0048828-0.7734375-0.0029297c-0.9667969-0.015625-2.6210938-0.0810547-3.6845703-0.34375  c-1.0234375-0.2519531-1.9746094-1.03125-3-1.3730469c-1.2080078-0.4013672-2.7441406-0.5537109-3.7441406-0.3886719  c0.4433594-0.9013672,1.546875-2.4355469,1.7607422-2.8339844c0.21875-0.40625,0.9179688-1.7119141-0.3867188-0.6669922  c-0.7851563,0.6269531-1.8984375,1.640625-3.2255859,2.9541016c-1.328125,1.3144531-2.1005859,2.1601563-2.6582031,3.4570313  c-0.125,0.5283203-0.078125,1.3369141-0.1328125,2.5996094c-0.0654297,1.453125-0.2216797,3.3447266-0.1816406,3.3769531  C131.6174316,168.2214355,132.083252,167.5749512,132.1955566,167.2370605z M137.3859863,161.1452637  c1.5947266-0.1015625,2.9189453,0.6162109,2.9980469,1.6552734c0.0771484,1.0380859-1.1220703,2.1503906-2.71875,2.2519531  c-1.5947266,0.1015625-2.9482422-0.8046875-3.0273438-1.84375  C134.5598145,162.1706543,135.7893066,161.2458496,137.3859863,161.1452637z"/>
<path fill="#EED717" d="M296.7697754,257.9001465c0.5253906-1.2763672,1.0146484-3.015625,1.0166016-5.0732422  c0-0.2197266-0.0039063-0.4384766-0.015625-0.6621094c-0.3105469-6.2509766-2.0908203-16.5644531-3.9765625-27.4824219  c-0.4970703-2.8779297-1.0039063-5.8085938-1.4931641-8.7275391l-0.1601563-0.953125l-0.9599609,0.1298828  c-2.2910156,0.3105469-4.5361328,0.6005859-6.7011719,0.8808594c-8,1.0351563-14.9091797,1.9277344-19.0224609,3.1855469  c-0.71875,0.2177734-1.4345703,0.4951172-2.1230469,0.828125c-0.2070313,0.0996094-0.4033203,0.2011719-0.5908203,0.3027344  c-0.2919922,0.1582031-0.5615234,0.3164063-0.8056641,0.4707031c-0.0058594-0.2539063-0.0136719-0.5273438-0.0283203-0.8242188  c-0.0117188-0.2695313-0.0214844-0.4970703-0.0361328-0.734375c-0.0976563-1.6435547-0.2861328-3.3828125-0.5644531-5.1650391  c-0.3037109-1.9501953-0.6943359-3.8623047-1.1630859-5.6806641l-0.1601563-0.6083984  c-0.0869141-0.3232422-0.1699219-0.6191406-0.2490234-0.8886719c0.8984375,0.2089844,2.0761719,0.3847656,3.4902344,0.3847656  l0.3779297-0.0039063c4.5595703-0.1035156,11.7763672-1.3916016,20.1318359-2.8857422  c1.8466797-0.3310547,3.7363281-0.6679688,5.6464844-1.0019531l0.953125-0.1669922l-0.1357422-0.9599609  c-0.6640625-4.6552734-1.5380859-10.8935547-2.1005859-14.9892578l-0.1416016-1.0332031l-1.0253906,0.1845703  c-8.3632813,1.5078125-15.2373047,3.0947266-18.8574219,4.3535156c-0.3896484,0.1337891-0.7529297,0.2822266-1.0898438,0.4365234  c-0.1787109,0.0810547-0.3574219,0.1679688-0.5322266,0.2578125c-0.3261719,0.1679688-0.6230469,0.3408203-0.8886719,0.5087891  c-0.0117188-0.265625-0.0283203-0.5576172-0.0488281-0.875l-0.0507813-0.6728516  c-0.1210938-1.6035156-0.328125-3.3466797-0.6103516-5.1796875c-0.3066406-1.9580078-0.6816406-3.8798828-1.1142578-5.7148438  l-0.1298828-0.5380859c-0.0869141-0.3554688-0.1708984-0.6796875-0.2480469-0.9697266  c0.7470703,0.1679688,1.6884766,0.3085938,2.796875,0.3222656l0.4746094,0.0019531  c4.1162109,0,11.3613281-0.5986328,18.9091797-1.5585938l1.0322266-0.1318359l-0.171875-1.0263672  c-0.4853516-2.8798828-1.234375-6.3769531-1.9082031-8.9101563c-0.3691406-1.3798828-0.9511719-2.6845703-1.7304688-3.8779297  c-0.2236328-0.3388672-0.4472656-0.6474609-0.6660156-0.9277344c-0.0957031-0.1230469-0.1923828-0.2412109-0.2861328-0.3544922  c2.0761719-0.0244141,4.9765625-0.1650391,8.0546875-0.6396484c3.2128906-0.4990234,6.1210938-1.2910156,8.0224609-1.875  c-0.0683594,0.1865234-0.1337891,0.3857422-0.1982422,0.5927734c-0.0898438,0.2900391-0.1748047,0.6025391-0.2519531,0.9335938  c-0.2539063,1.0712891-0.3837891,2.1972656-0.3857422,3.3417969c0,0.2910156,0.0078125,0.5869141,0.0244141,0.8935547  c0.1445313,2.5507813,0.6308594,6.296875,1.0126953,8.9921875l0.1484375,1.0371094l1.0263672-0.1943359  c6.8388672-1.2890625,13.3701172-2.8515625,17.0419922-4.0771484c1.0449219-0.3496094,1.9023438-0.7695313,2.5625-1.1591797  c0.0839844,1.6191406,0.2841797,4.1845703,0.7734375,7.3408203c0.4570313,2.9443359,0.9765625,5.1787109,1.3613281,6.6298828  c-0.3027344-0.0810547-0.6347656-0.1542969-0.9941406-0.2167969c-0.1914063-0.0332031-0.3876953-0.0615234-0.5947266-0.0859375  c-0.3652344-0.0458984-0.7587891-0.0771484-1.1728516-0.0869141c-0.2900391-0.0058594-0.5947266-0.0097656-0.9111328-0.0097656  c-3.734375,0-9.5869141,0.46875-16.4755859,1.3183594l-1.0429688,0.1279297l0.1787109,1.0351563  c0.7119141,4.1162109,1.7675781,10.3339844,2.5429688,14.9150391l0.1601563,0.9511719l0.9580078-0.1279297  c1.3457031-0.1757813,2.6855469-0.3505859,4.0097656-0.5234375c7.7021484-1,14.9785156-1.9462891,19.34375-3.234375  c1.5136719-0.4492188,2.7089844-1.03125,3.578125-1.546875c0.0380859,1.6171875,0.1894531,4.1708984,0.6816406,7.3242188  c0.4541016,2.9267578,1.0097656,5.1494141,1.4404297,6.6015625c-0.2783203-0.0722656-0.5810547-0.1416016-0.9052734-0.2041016  c-0.2070313-0.0410156-0.4277344-0.0771484-0.6591797-0.1123047c-0.6884766-0.0996094-1.3925781-0.1494141-2.0908203-0.1494141  l-0.2089844,0.0039063c-4.3671875,0.0546875-11.2617188,1.3183594-18.5605469,2.6582031  c-1.5761719,0.2880859-3.1767578,0.5830078-4.7900391,0.8710938l-0.9501953,0.1699219l0.1367188,0.9560547  c0.5898438,4.1132813,1.1386719,8.2636719,1.6660156,12.2783203c1.2519531,9.5185547,2.4375,18.5068359,3.8398438,23.9335938  c0.5957031,2.3056641,1.6582031,4.0283203,2.59375,5.1933594c-0.1347656,0.0019531-0.2744141,0.0039063-0.4179688,0.0058594  c-0.3554688,0.0058594-0.7392578,0.0166016-1.140625,0.0322266c-2.3066406,0.0810547-4.515625,0.2861328-6.5683594,0.6054688  c-2.0253906,0.3125-4.1757813,0.7832031-6.3925781,1.3955078c-0.4072266,0.1142578-0.7929688,0.2255859-1.1503906,0.3330078  C296.9934082,257.8337402,296.8791504,257.8679199,296.7697754,257.9001465L296.7697754,257.9001465z"/>
<path d="M299.8098145,157.361084c0,0-0.6523438,0.9296875-1.1621094,2.5800781  c-0.0830078,0.2705078-0.1630859,0.5595703-0.234375,0.8662109c-0.2099609,0.8925781-0.3574219,1.9394531-0.359375,3.1181641  c0,0.2705078,0.0078125,0.5488281,0.0234375,0.8339844c0.1298828,2.3056641,0.5556641,5.7519531,1.0029297,8.9101563  c6.6865234-1.2617188,13.2060547-2.8066406,16.9091797-4.0419922c2.5175781-0.8408203,3.8242188-2.1162109,3.8242188-2.1162109  s0,0.0117188,0,0.0361328c0,0.0019531,0,0.0039063,0,0.0058594s0,0.0029297,0,0.0048828  c0,0.4414063,0.0263672,3.9365234,0.8183594,9.0449219c0.8457031,5.4306641,1.9023438,8.4160156,1.9023438,8.4160156  s-1.0253906-0.5751953-2.6953125-0.8632813c-0.1738281-0.0302734-0.3535156-0.0576172-0.5410156-0.0800781  c-0.3378906-0.0419922-0.6972656-0.0693359-1.0761719-0.0791016c-0.2832031-0.0058594-0.5800781-0.0097656-0.890625-0.0097656  c-3.9570313,0-10.1035156,0.5400391-16.3515625,1.3105469c0.7109375,4.1181641,1.7675781,10.3369141,2.5410156,14.9189453  c9.1972656-1.2197266,18.1777344-2.2451172,23.2011719-3.7285156c3.2080078-0.9472656,4.8671875-2.53125,4.8671875-2.53125  s-0.0166016,0.3300781-0.0166016,0.9404297c-0.0009766,1.4179688,0.0869141,4.3496094,0.6816406,8.1757813  c0.84375,5.4306641,2.0556641,8.3935547,2.0556641,8.3935547s-1.0097656-0.5361328-2.6962891-0.8603516  c-0.1953125-0.0380859-0.3994141-0.0732422-0.6123047-0.1044922c-0.5878906-0.0849609-1.2421875-0.1396484-1.9492188-0.1396484  c-0.0576172,0-0.1162109,0.0009766-0.1738281,0.0009766c-5.2265625,0.0673828-14.0566406,1.8779297-23.2099609,3.515625  c2.0146484,14.0234375,3.5185547,28.5048828,5.4833984,36.1044922c1.1279297,4.3574219,4.0546875,6.4736328,4.0546875,6.4736328  s-0.6748047-0.0332031-1.8027344-0.0332031c-0.3105469,0-0.6542969,0.0029297-1.0263672,0.0097656  c-0.3486328,0.0058594-0.7226563,0.0146484-1.1181641,0.0292969c-1.8105469,0.0644531-4.0800781,0.2265625-6.453125,0.5947266  c-2.3398438,0.3613281-4.5361328,0.8886719-6.2783203,1.3730469c-0.4013672,0.1123047-0.7792969,0.2207031-1.1298828,0.3261719  c-1.6582031,0.4951172-2.6894531,0.8789063-2.6894531,0.8789063s2.0712891-2.7441406,2.078125-6.8105469  c0-0.2011719-0.0048828-0.4042969-0.015625-0.6103516c-0.3867188-7.8183594-3.1025391-22.0751953-5.4550781-36.0917969  c-10.7177734,1.4521484-20.4345703,2.4638672-25.5654297,4.0302734c-0.7451172,0.2275391-1.4052734,0.4960938-1.9814453,0.7734375  c-0.1953125,0.09375-0.3789063,0.1884766-0.5546875,0.2832031c-1.5253906,0.8261719-2.3066406,1.6396484-2.3066406,1.6396484  s0.0380859-0.4550781,0.0380859-1.3173828c0-0.4121094-0.0087891-0.9179688-0.0341797-1.5126953  c-0.0097656-0.2255859-0.0214844-0.4628906-0.0361328-0.7128906c-0.0791016-1.3486328-0.2402344-3.0556641-0.5546875-5.0761719  c-0.3466797-2.2324219-0.7675781-4.1269531-1.1425781-5.5849609c-0.0537109-0.2089844-0.1064453-0.4091797-0.1582031-0.6005859  c-0.4677734-1.7304688-0.8320313-2.7041016-0.8320313-2.7041016s1.8701172,0.9423828,5.0390625,0.9423828  c0.1210938,0,0.2441406-0.0009766,0.3681641-0.0039063c5.4833984-0.1240234,15.2753906-2.0683594,25.6142578-3.8720703  c-0.6630859-4.6591797-1.5380859-10.8974609-2.0996094-14.9960938c-7.7626953,1.4003906-14.9121094,2.9951172-18.7060547,4.3125  c-0.3583984,0.1240234-0.6914063,0.2597656-1,0.4013672c-0.1728516,0.078125-0.3359375,0.1572266-0.4921875,0.2392578  c-1.5224609,0.7871094-2.3066406,1.6386719-2.3066406,1.6386719s0.0048828-0.1240234,0.0048828-0.3671875  c0-0.4423828-0.0146484-1.2763672-0.0917969-2.4609375c-0.0146484-0.2089844-0.0302734-0.4296875-0.0478516-0.6611328  c-0.1054688-1.3496094-0.2880859-3.0664063-0.6044922-5.1054688c-0.3515625-2.2539063-0.7509766-4.1679688-1.0986328-5.6376953  c-0.0449219-0.1894531-0.0888672-0.3710938-0.1318359-0.5458984c-0.4287109-1.7441406-0.75-2.7285156-0.75-2.7285156  s1.5947266,0.8261719,4.2861328,0.8583984c0.1494141,0.0019531,0.3046875,0.0029297,0.4628906,0.0029297  c4.1943359,0,11.4052734-0.6113281,18.7822266-1.5507813c-0.5351563-3.1806641-1.2949219-6.5898438-1.8867188-8.8173828  c-0.3847656-1.4414063-0.9794922-2.6367188-1.6035156-3.5917969c-0.2041016-0.3115234-0.4111328-0.5976563-0.6142578-0.8574219  c-1.0449219-1.3398438-2.0019531-2.0009766-2.0019531-2.0009766s0.6757813,0.0341797,1.8037109,0.0341797  c1.9238281,0,5.1611328-0.0986328,8.6015625-0.6318359C295.1691895,159.095459,299.8098145,157.361084,299.8098145,157.361084   M296.427002,160.5231934c-1.7832031,0.4921875-4.0126953,1.0234375-6.4052734,1.3945313  c-2.2705078,0.3515625-4.4501953,0.5224609-6.2841797,0.5996094c0.7714844,1.2285156,1.3505859,2.5566406,1.7246094,3.9560547  c0.6816406,2.5673828,1.4384766,6.0996094,1.9267578,9.0009766l0.3457031,2.0527344l-2.0654297,0.2626953  c-7.7011719,0.9814453-14.8164063,1.5673828-19.0351563,1.5673828c-0.1669922,0-0.3310547-0.0009766-0.4892578-0.0029297  c-0.5146484-0.0068359-0.9951172-0.0380859-1.4414063-0.0859375l0.0087891,0.0361328  c0.4404297,1.8642578,0.8193359,3.8125,1.1289063,5.7949219c0.2832031,1.8271484,0.4931641,3.5947266,0.6220703,5.2558594  c0.0390625-0.0175781,0.0771484-0.0351563,0.1162109-0.0527344c0.3730469-0.1708984,0.7685547-0.3300781,1.1689453-0.46875  c3.6679688-1.2734375,10.5957031-2.8740234,19.0068359-4.390625l2.0527344-0.3701172l0.2832031,2.0673828  c0.515625,3.7646484,1.3789063,9.9267578,2.0986328,14.984375l0.2734375,1.9189453l-1.9101563,0.3330078  c-1.9091797,0.3339844-3.8007813,0.671875-5.6494141,1.0019531c-8.3925781,1.5-15.6396484,2.7949219-20.2636719,2.8994141  c-0.1367188,0.0039063-0.2753906,0.0048828-0.4130859,0.0048828c-0.7705078,0-1.4755859-0.0498047-2.1103516-0.1279297  c0.4765625,1.8496094,0.8740234,3.7910156,1.1806641,5.7685547c0.28125,1.8076172,0.4736328,3.5634766,0.5722656,5.2158203  c0.0117188-0.0048828,0.0234375-0.0107422,0.0351563-0.0166016c0.7207031-0.3466797,1.4824219-0.6445313,2.2617188-0.8818359  c4.1972656-1.2822266,11.1523438-2.1816406,19.2070313-3.2236328c2.1552734-0.2783203,4.3916016-0.5673828,6.6738281-0.8769531  l1.9199219-0.2597656l0.3203125,1.9111328c0.4921875,2.9306641,1,5.8720703,1.4990234,8.7626953  c1.8876953,10.9316406,3.6699219,21.2578125,3.9824219,27.5615234c0.0117188,0.234375,0.0175781,0.4736328,0.0175781,0.7089844  c-0.0029297,1.328125-0.1953125,2.5371094-0.4716797,3.5898438c2.1308594-0.5800781,4.2099609-1.0292969,6.1845703-1.3339844  c2.015625-0.3125,4.1679688-0.515625,6.4003906-0.6064453c-0.6582031-1.0820313-1.2753906-2.4111328-1.6845703-3.9902344  c-1.4169922-5.4794922-2.6025391-14.4863281-3.8574219-24.0214844c-0.5302734-4.0214844-1.0771484-8.1806641-1.6689453-12.2998047  l-0.2753906-1.9130859l1.9023438-0.3398438c1.6171875-0.2890625,3.2246094-0.5839844,4.8027344-0.8730469  c7.3349609-1.3457031,14.2636719-2.6162109,18.7333984-2.6738281l0.2001953-0.0009766  c0.7519531,0,1.5039063,0.0546875,2.2363281,0.1611328c0.0097656,0.0009766,0.0185547,0.0029297,0.0273438,0.0039063  c-0.3457031-1.3623047-0.7177734-3.0869141-1.0380859-5.1464844c-0.3583984-2.3076172-0.5380859-4.3037109-0.6259766-5.859375  c-0.6835938,0.3154297-1.4707031,0.6220703-2.3632813,0.8847656c-4.4443359,1.3125-11.7666016,2.2646484-19.5195313,3.2714844  c-1.3164063,0.1708984-2.6484375,0.34375-3.9853516,0.5214844l-1.9130859,0.2539063l-0.3222656-1.9033203  c-0.7734375-4.5800781-1.8291016-10.7958984-2.5390625-14.9121094l-0.3574219-2.0683594l2.0830078-0.2568359  c6.9287109-0.8544922,12.8232422-1.3251953,16.5966797-1.3251953c0.3242188,0,0.6367188,0.0039063,0.9316406,0.0097656  c0.4375,0.0117188,0.8632813,0.0429688,1.2792969,0.09375c0.0380859,0.0048828,0.0761719,0.0097656,0.1152344,0.0146484  c-0.3203125-1.3662109-0.6767578-3.1064453-1.0019531-5.1933594c-0.3613281-2.3320313-0.5673828-4.3496094-0.6855469-5.9101563  c-0.4101563,0.1835938-0.859375,0.3603516-1.3466797,0.5224609c-3.7080078,1.2373047-10.2880859,2.8125-17.1728516,4.1103516  l-2.0566406,0.3886719l-0.2939453-2.0732422c-0.3847656-2.7148438-0.8730469-6.4941406-1.0185547-9.078125  c-0.0185547-0.3222656-0.0273438-0.6386719-0.0273438-0.9462891  C296.0559082,162.7702637,296.1809082,161.6276855,296.427002,160.5231934L296.427002,160.5231934z"/>
</svg>